<svg id="Layer_1" data-name="Layer 1" xmlns="http://www.w3.org/2000/svg" viewBox="0 0 384.18 144.51"><title>figure14a</title><path d="M202.67,314.25a2.3,2.3,0,0,1,.09-0.53,1.11,1.11,0,0,1,.23-0.43,0.65,0.65,0,0,1,.89,0,1.09,1.09,0,0,1,.24.43,2.3,2.3,0,0,1,.09.53c0,0.18,0,.34,0,0.47s0,0.29,0,.47a2.3,2.3,0,0,1-.09.52,1.09,1.09,0,0,1-.24.43,0.65,0.65,0,0,1-.89,0,1.11,1.11,0,0,1-.23-0.43,2.3,2.3,0,0,1-.09-0.52q0-.27,0-0.47C202.66,314.59,202.66,314.43,202.67,314.25Zm-1,1.36a2.63,2.63,0,0,0,.29.83,1.71,1.71,0,0,0,.56.61,1.88,1.88,0,0,0,1.82,0,1.71,1.71,0,0,0,.56-0.61,2.63,2.63,0,0,0,.29-0.83,5,5,0,0,0,0-1.79,2.63,2.63,0,0,0-.29-0.83,1.71,1.71,0,0,0-.56-0.61,1.88,1.88,0,0,0-1.82,0,1.71,1.71,0,0,0-.56.61,2.63,2.63,0,0,0-.29.83A5,5,0,0,0,201.69,315.61Z" transform="translate(-193.23 -181.25)" fill="#58595b"/><path d="M202.39,269.94a2.3,2.3,0,0,1,.09-0.53,1.11,1.11,0,0,1,.23-0.43,0.65,0.65,0,0,1,.89,0,1.09,1.09,0,0,1,.24.43,2.3,2.3,0,0,1,.09.53c0,0.18,0,.34,0,0.47s0,0.29,0,.47a2.3,2.3,0,0,1-.09.52,1.09,1.09,0,0,1-.24.43,0.65,0.65,0,0,1-.89,0,1.11,1.11,0,0,1-.23-0.43,2.3,2.3,0,0,1-.09-0.52q0-.27,0-0.47C202.37,270.28,202.38,270.13,202.39,269.94Zm-1,1.36a2.63,2.63,0,0,0,.29.83,1.71,1.71,0,0,0,.56.61,1.88,1.88,0,0,0,1.82,0,1.71,1.71,0,0,0,.56-0.61,2.63,2.63,0,0,0,.29-0.83,5,5,0,0,0,0-1.79,2.63,2.63,0,0,0-.29-0.83,1.71,1.71,0,0,0-.56-0.61,1.88,1.88,0,0,0-1.82,0,1.71,1.71,0,0,0-.56.61,2.63,2.63,0,0,0-.29.83A5,5,0,0,0,201.4,271.31Zm-0.84-3.37h-3l-0.06,2.74a3.65,3.65,0,0,1,.51-0.13,2.83,2.83,0,0,1,.52,0,2.42,2.42,0,0,1,.41,0,1.12,1.12,0,0,1,.37.13,0.77,0.77,0,0,1,.27.25,0.73,0.73,0,0,1,.1.4,0.74,0.74,0,0,1-.2.53,0.71,0.71,0,0,1-.54.21,0.65,0.65,0,0,1-.46-0.16,0.71,0.71,0,0,1-.22-0.43l-1.1.25a1.61,1.61,0,0,0,.59,1,1.79,1.79,0,0,0,1.08.31,2.3,2.3,0,0,0,.75-0.12,1.71,1.71,0,0,0,.6-0.35,1.61,1.61,0,0,0,.4-0.56,1.86,1.86,0,0,0,.14-0.75,1.77,1.77,0,0,0-.13-0.68,1.48,1.48,0,0,0-.35-0.52,1.54,1.54,0,0,0-.54-0.33,2.05,2.05,0,0,0-.69-0.11,1.39,1.39,0,0,0-.44.06l0-.76h2v-0.92Z" transform="translate(-193.23 -181.25)" fill="#58595b"/><path d="M202.39,226.64a2.3,2.3,0,0,1,.09-0.53,1.11,1.11,0,0,1,.23-0.43,0.65,0.65,0,0,1,.89,0,1.09,1.09,0,0,1,.24.43,2.3,2.3,0,0,1,.09.53c0,0.18,0,.34,0,0.47s0,0.29,0,.47a2.3,2.3,0,0,1-.09.52,1.09,1.09,0,0,1-.24.43,0.65,0.65,0,0,1-.89,0,1.11,1.11,0,0,1-.23-0.43,2.3,2.3,0,0,1-.09-0.52q0-.27,0-0.47C202.37,227,202.38,226.82,202.39,226.64Zm-1,1.36a2.63,2.63,0,0,0,.29.83,1.71,1.71,0,0,0,.56.61,1.88,1.88,0,0,0,1.82,0,1.71,1.71,0,0,0,.56-0.61,2.63,2.63,0,0,0,.29-0.83,5,5,0,0,0,0-1.79,2.63,2.63,0,0,0-.29-0.83,1.71,1.71,0,0,0-.56-0.61,1.88,1.88,0,0,0-1.82,0,1.71,1.71,0,0,0-.56.61,2.63,2.63,0,0,0-.29.83A5,5,0,0,0,201.4,228Zm-3.16-1.36a2.3,2.3,0,0,1,.09-0.53,1.11,1.11,0,0,1,.23-0.43,0.65,0.65,0,0,1,.89,0,1.09,1.09,0,0,1,.24.43,2.3,2.3,0,0,1,.09.53c0,0.18,0,.34,0,0.47s0,0.29,0,.47a2.3,2.3,0,0,1-.09.52,1.09,1.09,0,0,1-.24.43,0.65,0.65,0,0,1-.89,0,1.11,1.11,0,0,1-.23-0.43,2.3,2.3,0,0,1-.09-0.52q0-.27,0-0.47C198.23,227,198.24,226.82,198.25,226.64Zm-1,1.36a2.63,2.63,0,0,0,.29.83,1.71,1.71,0,0,0,.56.61,1.88,1.88,0,0,0,1.82,0,1.71,1.71,0,0,0,.56-0.61,2.63,2.63,0,0,0,.29-0.83,5,5,0,0,0,0-1.79,2.63,2.63,0,0,0-.29-0.83,1.71,1.71,0,0,0-.56-0.61,1.88,1.88,0,0,0-1.82,0,1.71,1.71,0,0,0-.56.61,2.63,2.63,0,0,0-.29.83A5,5,0,0,0,197.26,228Zm-2.44,1.58h1v-5h-1L193.23,226l0.6,0.69,1-.87v3.78Z" transform="translate(-193.23 -181.25)" fill="#58595b"/><path d="M202.39,183.34a2.3,2.3,0,0,1,.09-0.53,1.11,1.11,0,0,1,.23-0.43,0.65,0.65,0,0,1,.89,0,1.09,1.09,0,0,1,.24.43,2.3,2.3,0,0,1,.09.53c0,0.18,0,.34,0,0.47s0,0.29,0,.47a2.3,2.3,0,0,1-.09.52,1.09,1.09,0,0,1-.24.43,0.65,0.65,0,0,1-.89,0,1.11,1.11,0,0,1-.23-0.43,2.3,2.3,0,0,1-.09-0.52q0-.27,0-0.47C202.37,183.68,202.38,183.52,202.39,183.34Zm-1,1.36a2.63,2.63,0,0,0,.29.83,1.71,1.71,0,0,0,.56.61,1.88,1.88,0,0,0,1.82,0,1.71,1.71,0,0,0,.56-0.61,2.63,2.63,0,0,0,.29-0.83,5,5,0,0,0,0-1.79,2.63,2.63,0,0,0-.29-0.83,1.71,1.71,0,0,0-.56-0.61,1.88,1.88,0,0,0-1.82,0,1.71,1.71,0,0,0-.56.61,2.63,2.63,0,0,0-.29.83A5,5,0,0,0,201.4,184.7Zm-0.84-3.37h-3l-0.06,2.74a3.65,3.65,0,0,1,.51-0.13,2.83,2.83,0,0,1,.52,0,2.42,2.42,0,0,1,.41,0,1.12,1.12,0,0,1,.37.13,0.77,0.77,0,0,1,.27.25,0.73,0.73,0,0,1,.1.4,0.74,0.74,0,0,1-.2.53,0.71,0.71,0,0,1-.54.21,0.65,0.65,0,0,1-.46-0.16,0.71,0.71,0,0,1-.22-0.43l-1.1.25a1.61,1.61,0,0,0,.59,1,1.79,1.79,0,0,0,1.08.31,2.3,2.3,0,0,0,.75-0.12,1.71,1.71,0,0,0,.6-0.35,1.61,1.61,0,0,0,.4-0.56,1.86,1.86,0,0,0,.14-0.75,1.77,1.77,0,0,0-.13-0.68,1.48,1.48,0,0,0-.35-0.52,1.54,1.54,0,0,0-.54-0.33A2.05,2.05,0,0,0,199,183a1.39,1.39,0,0,0-.44.06l0-.76h2v-0.92Zm-5.75,5h1v-5h-1l-1.62,1.37,0.6,0.69,1-.87v3.78Z" transform="translate(-193.23 -181.25)" fill="#58595b"/><line x1="16.75" y1="133.03" x2="356.84" y2="133.03" fill="none" stroke="#d1d3d4" stroke-miterlimit="10" stroke-width="0.32"/><line x1="16.75" y1="89.73" x2="356.84" y2="89.73" fill="none" stroke="#d1d3d4" stroke-miterlimit="10" stroke-width="0.32"/><line x1="16.75" y1="46.42" x2="356.84" y2="46.42" fill="none" stroke="#d1d3d4" stroke-miterlimit="10" stroke-width="0.32"/><line x1="16.75" y1="3.12" x2="356.84" y2="3.12" fill="none" stroke="#d1d3d4" stroke-miterlimit="10" stroke-width="0.32"/><polygon points="356.9 133.03 16.69 133.03 16.69 106.25 22.36 104.48 28.03 102.73 33.7 101.99 39.37 99.44 45.04 98.44 50.71 96.42 56.38 95.87 62.05 95.36 67.72 92 73.39 88.61 79.06 83.69 84.73 80.86 90.4 77.91 96.07 72.43 101.74 72.4 107.42 68.44 113.08 63.65 118.75 58.4 124.42 62.06 130.09 56.45 135.76 56.93 141.44 62.53 147.1 62.41 152.78 58.64 158.44 59.42 164.12 56.4 169.78 56.19 175.46 52.86 181.13 54.83 186.79 54.77 192.47 52.08 198.13 46.28 203.81 47.78 209.47 41.63 215.15 38.13 220.81 33.42 226.49 30.94 232.16 27.73 237.82 26 243.5 29.25 249.16 30.34 254.84 28.43 260.5 28.48 266.18 23.41 271.85 23.31 277.52 20.11 283.19 22.4 288.86 30.99 294.53 26.82 300.2 25.57 305.87 28.68 311.54 29.5 317.21 31.75 322.88 27.54 328.55 29.77 334.22 34.29 339.89 34.2 345.56 36.05 351.23 36.58 356.9 38.63 356.9 133.03" fill="#e28e8e"/><polygon points="356.9 133.03 16.69 133.03 16.69 111.33 22.36 109.92 28.03 109 33.7 108.2 39.37 106.38 45.04 105.66 50.71 103.95 56.38 103.66 62.05 103.39 67.72 100.58 73.39 98.05 79.06 93.83 84.73 90.81 90.4 88.58 96.07 83.63 101.74 84.18 107.42 80.01 113.08 75.39 118.75 70.41 124.42 73.12 130.09 67.5 135.76 67.92 141.44 73.24 147.1 72.83 152.78 68.53 158.44 69.22 164.12 66.02 169.78 65.62 175.46 62.27 181.13 64.11 186.79 63.87 192.47 61.59 198.13 57.1 203.81 58.52 209.47 53.69 215.15 50.87 220.81 46.49 226.49 44.51 232.16 41.65 237.82 40.69 243.5 43.71 249.16 44.58 254.84 42.04 260.5 41.58 266.18 35.94 271.85 35.79 277.52 32.84 283.19 34.8 288.86 42.38 294.53 37.58 300.2 35.95 305.87 38.65 311.54 38.85 317.21 41.09 322.88 36.53 328.55 38.44 334.22 42.55 339.89 42.63 345.56 44.34 351.23 44.69 356.9 46.98 356.9 133.03" fill="#cd1349"/><polygon points="356.9 133.03 16.69 133.03 16.69 123.95 22.36 123.28 28.03 123.25 33.7 123.06 39.37 122.27 45.04 121.88 50.71 121.18 56.38 121.01 62.05 121.16 67.72 120.86 73.39 120.44 79.06 120.26 84.73 119.96 90.4 119.84 96.07 119.55 101.74 119.23 107.42 118.83 113.08 118.54 118.75 118.58 124.42 118.7 130.09 118.49 135.76 118.4 141.44 118.09 147.1 117.27 152.78 117.65 158.44 117.59 164.12 117.18 169.78 116.92 175.46 116.5 181.13 116.29 186.79 116.25 192.47 115.68 198.13 115.61 203.81 115.41 209.47 114.84 215.15 114.53 220.81 114.57 226.49 113.59 232.16 113.72 237.82 113.56 243.5 113.51 249.16 113.44 254.84 112.88 260.5 113.24 266.18 112.58 271.85 111.78 277.52 110.84 283.19 111.2 288.86 111.29 294.53 111.05 300.2 111.72 305.87 111.57 311.54 111.92 317.21 111.2 322.88 110.81 328.55 111 334.22 110.51 339.89 110.93 345.56 110.89 351.23 110.28 356.9 110.49 356.9 133.03" fill="#231f20"/><polygon points="356.9 133.03 16.69 133.03 16.69 124.19 22.36 123.52 28.03 123.5 33.7 123.31 39.37 122.52 45.04 122.15 50.71 121.46 56.38 121.3 62.05 121.46 67.72 121.17 73.39 120.75 79.06 120.58 84.73 120.29 90.4 120.18 96.07 119.89 101.74 119.59 107.42 119.21 113.08 118.92 118.75 118.98 124.42 119.09 130.09 118.9 135.76 118.84 141.44 118.54 147.1 117.74 152.78 118.15 158.44 118.1 164.12 117.73 169.78 117.48 175.46 117.1 181.13 116.91 186.79 116.91 192.47 116.34 198.13 116.31 203.81 116.14 209.47 115.53 215.15 115.23 220.81 115.31 226.49 114.26 232.16 114.39 237.82 114.22 243.5 114.14 249.16 114.09 254.84 113.52 260.5 113.89 266.18 113.23 271.85 112.43 277.52 111.49 283.19 111.86 288.86 111.93 294.53 111.68 300.2 112.39 305.87 112.24 311.54 112.57 317.21 111.86 322.88 111.47 328.55 111.65 334.22 111.2 339.89 111.62 345.56 111.6 351.23 110.98 356.9 111.19 356.9 133.03" fill="#939598"/><polygon points="356.9 133.03 16.69 133.03 16.69 126.51 22.36 125.86 28.03 125.87 33.7 125.69 39.37 125.04 45.04 124.76 50.71 124.11 56.38 124 62.05 124.22 67.72 124.03 73.39 123.76 79.06 123.63 84.73 123.49 90.4 123.49 96.07 123.24 101.74 122.94 107.42 122.57 113.08 122.3 118.75 122.38 124.42 122.45 130.09 122.32 135.76 122.29 141.44 121.99 147.1 121.17 152.78 121.5 158.44 121.4 164.12 121.11 169.78 121 175.46 120.59 181.13 120.37 186.79 120.31 192.47 119.8 198.13 119.85 203.81 119.78 209.47 119.11 215.15 118.84 220.81 118.97 226.49 117.92 232.16 117.94 237.82 117.77 243.5 117.67 249.16 117.64 254.84 117.08 260.5 117.42 266.18 116.82 271.85 115.99 277.52 115.02 283.19 115.36 288.86 115.42 294.53 115.2 300.2 115.93 305.87 115.67 311.54 115.93 317.21 115.22 322.88 114.77 328.55 114.87 334.22 114.48 339.89 114.76 345.56 114.75 351.23 114.12 356.9 114.33 356.9 133.03" fill="#58595b"/><path d="M544.53,304.71h-0.46V310h0.46v-5.29ZM542.2,308l-0.65,0a2.55,2.55,0,0,0-.67.14,1.25,1.25,0,0,0-.52.34,0.9,0.9,0,0,0-.21.63,0.87,0.87,0,0,0,.09.42,0.91,0.91,0,0,0,.25.3,1.05,1.05,0,0,0,.36.18,1.49,1.49,0,0,0,.42.06,1.46,1.46,0,0,0,.68-0.14,1.25,1.25,0,0,0,.48-0.47h0c0,0.09,0,.18,0,0.27s0,0.18,0,.26H543c0-.09,0-0.2,0-0.34s0-.27,0-0.4v-1.46a1.25,1.25,0,0,0-.1-0.52,1.06,1.06,0,0,0-.26-0.36,1,1,0,0,0-.38-0.21,1.51,1.51,0,0,0-.46-0.07,1.85,1.85,0,0,0-1.39.48l0.28,0.33a1.45,1.45,0,0,1,1-.38,0.75,0.75,0,0,1,.84.85V308H542.2Zm0.23,0.38v0.24a1.4,1.4,0,0,1-.06.41,0.89,0.89,0,0,1-.5.56,1.05,1.05,0,0,1-.44.08,1.22,1.22,0,0,1-.28,0,0.75,0.75,0,0,1-.25-0.1l-0.18-.19a0.55,0.55,0,0,1-.07-0.28,0.47,0.47,0,0,1,.17-0.39,1.11,1.11,0,0,1,.41-0.21,2.53,2.53,0,0,1,.5-0.08l0.44,0h0.24Zm-6-1.65c0,0.12,0,.25,0,0.38s0,0.25,0,.34V310h0.46v-1.68a1.45,1.45,0,0,1,.14-0.7,1.1,1.1,0,0,1,.32-0.38,0.86,0.86,0,0,1,.34-0.15l0.2,0a0.77,0.77,0,0,1,.7.29,1.54,1.54,0,0,1,.19.84V310h0.46v-2.08a1.36,1.36,0,0,0-.3-0.95,1.19,1.19,0,0,0-.93-0.33,1.21,1.21,0,0,0-.33,0,1.43,1.43,0,0,0-.31.13,1.27,1.27,0,0,0-.27.19l-0.2.25h0V307l0-.26h-0.48ZM534.68,308L534,308a2.55,2.55,0,0,0-.67.14,1.25,1.25,0,0,0-.52.34,0.9,0.9,0,0,0-.21.63,0.87,0.87,0,0,0,.09.42,0.91,0.91,0,0,0,.25.3,1.05,1.05,0,0,0,.36.18,1.49,1.49,0,0,0,.42.06,1.46,1.46,0,0,0,.68-0.14,1.25,1.25,0,0,0,.48-0.47h0c0,0.09,0,.18,0,0.27s0,0.18,0,.26h0.45c0-.09,0-0.2,0-0.34s0-.27,0-0.4v-1.46a1.25,1.25,0,0,0-.1-0.52,1.06,1.06,0,0,0-.26-0.36,1,1,0,0,0-.38-0.21,1.51,1.51,0,0,0-.46-0.07,1.85,1.85,0,0,0-1.39.48l0.28,0.33a1.45,1.45,0,0,1,1-.38,0.75,0.75,0,0,1,.84.85V308h-0.23Zm0.23,0.38v0.24a1.4,1.4,0,0,1-.06.41,0.89,0.89,0,0,1-.5.56,1.05,1.05,0,0,1-.44.08,1.22,1.22,0,0,1-.28,0,0.75,0.75,0,0,1-.25-0.1l-0.18-.19a0.55,0.55,0,0,1-.07-0.28,0.47,0.47,0,0,1,.17-0.39,1.11,1.11,0,0,1,.41-0.21,2.53,2.53,0,0,1,.5-0.08l0.44,0h0.24ZM532,307.23a0.94,0.94,0,0,0-.46-0.46,1.53,1.53,0,0,0-.64-0.13,1.67,1.67,0,0,0-.45.06,1.26,1.26,0,0,0-.39.18,0.88,0.88,0,0,0-.27.31,0.92,0.92,0,0,0-.1.44,0.72,0.72,0,0,0,.1.39,0.89,0.89,0,0,0,.23.26,1.07,1.07,0,0,0,.28.15l0.23,0.07,0.45,0.1a1.6,1.6,0,0,1,.44.17,0.38,0.38,0,0,1,.18.35,0.44,0.44,0,0,1-.07.24l-0.17.17a0.81,0.81,0,0,1-.25.1,1.28,1.28,0,0,1-.28,0,0.94,0.94,0,0,1-.51-0.13,1.1,1.1,0,0,1-.35-0.36l-0.4.27a1.29,1.29,0,0,0,.56.49,1.73,1.73,0,0,0,.7.14,2,2,0,0,0,.47-0.06,1.21,1.21,0,0,0,.41-0.18,0.89,0.89,0,0,0,.4-0.77,0.8,0.8,0,0,0-.23-0.58,1.11,1.11,0,0,0-.57-0.31l-0.47-.11a1.59,1.59,0,0,1-.48-0.18,0.37,0.37,0,0,1-.16-0.34l0.06-.22,0.16-.15,0.22-.09,0.24,0a0.74,0.74,0,0,1,.43.12,0.86,0.86,0,0,1,.28.32Zm-3.26-.5h-0.46V310h0.46v-3.28Zm0-1.5-0.23-.09-0.23.09a0.33,0.33,0,0,0,0,.48l0.23,0.09,0.23-.09A0.33,0.33,0,0,0,528.71,305.23Zm-1.2,1.5h-0.95v-0.92h-0.46v0.92h-0.69v0.42h0.69v2.06a1.06,1.06,0,0,0,.08.44,0.72,0.72,0,0,0,.2.27,0.65,0.65,0,0,0,.26.13,1.17,1.17,0,0,0,.28,0,1.48,1.48,0,0,0,.62-0.12l0-.43-0.23.09-0.25,0-0.19,0-0.15-.09-0.1-.18a1,1,0,0,1,0-.3v-1.93h0.95v-0.42Zm-4,3.28H524v-1.85a1.15,1.15,0,0,1,.06-0.35,1.09,1.09,0,0,1,.19-0.34,1,1,0,0,1,.32-0.26,1,1,0,0,1,.46-0.1,0.77,0.77,0,0,1,.27,0l0.09-.46a1.24,1.24,0,0,0-.34,0,1.17,1.17,0,0,0-.39.06,1.07,1.07,0,0,0-.3.16l-0.22.22-0.14.26h0v-0.61h-0.46q0,0.36,0,.58c0,0.15,0,.3,0,0.44V310Zm-4.22-1.3h2.53l0.55,1.3H523l-2.16-5h-0.49l-2.16,5h0.59Zm1.27-3.07,1.07,2.6h-2.15Z" transform="translate(-193.23 -181.25)" fill="#fff"/><path d="M544.53,240.36h-0.46v5.29h0.46v-5.29Zm-2.33,3.28-0.65,0a2.55,2.55,0,0,0-.67.14,1.25,1.25,0,0,0-.52.34,0.9,0.9,0,0,0-.21.63,0.87,0.87,0,0,0,.09.42,0.91,0.91,0,0,0,.25.3,1.05,1.05,0,0,0,.36.18,1.49,1.49,0,0,0,.42.06,1.46,1.46,0,0,0,.68-0.14,1.25,1.25,0,0,0,.48-0.47h0c0,0.09,0,.18,0,0.27s0,0.18,0,.26H543c0-.09,0-0.2,0-0.34s0-.27,0-0.4v-1.46a1.25,1.25,0,0,0-.1-0.52,1.06,1.06,0,0,0-.26-0.36,1,1,0,0,0-.38-0.21,1.51,1.51,0,0,0-.46-0.07,1.85,1.85,0,0,0-1.39.48l0.28,0.33a1.45,1.45,0,0,1,1-.38,0.75,0.75,0,0,1,.84.85v0.08H542.2Zm0.23,0.38v0.24a1.4,1.4,0,0,1-.06.41,0.89,0.89,0,0,1-.5.56,1.05,1.05,0,0,1-.44.08,1.22,1.22,0,0,1-.28,0,0.75,0.75,0,0,1-.25-0.1l-0.18-.19a0.55,0.55,0,0,1-.07-0.28,0.47,0.47,0,0,1,.17-0.39,1.11,1.11,0,0,1,.41-0.21,2.53,2.53,0,0,1,.5-0.08l0.44,0h0.24Zm-3.21-1.65h-0.46v3.28h0.46v-3.28Zm0-1.5-0.23-.09-0.23.09a0.33,0.33,0,0,0,0,.48l0.23,0.09,0.23-.09A0.33,0.33,0,0,0,539.22,240.88Zm-2.84,4.78h0.46v-1.85a1.15,1.15,0,0,1,.06-0.35,1.09,1.09,0,0,1,.19-0.34,1,1,0,0,1,.32-0.26,1,1,0,0,1,.46-0.1,0.77,0.77,0,0,1,.27,0l0.09-.46a1.24,1.24,0,0,0-.34,0,1.17,1.17,0,0,0-.39.06,1.07,1.07,0,0,0-.3.16l-0.22.22-0.14.26h0v-0.61h-0.46q0,0.36,0,.58c0,0.15,0,.3,0,0.44v2.25Zm-0.68-3.28h-0.95v-0.92h-0.46v0.92H533.6v0.42h0.69v2.06a1.06,1.06,0,0,0,.08.44,0.72,0.72,0,0,0,.2.27,0.65,0.65,0,0,0,.26.13,1.17,1.17,0,0,0,.28,0,1.48,1.48,0,0,0,.62-0.12l0-.43-0.23.09-0.25,0-0.19,0-0.15-.09-0.1-.18a1,1,0,0,1,0-.3V242.8h0.95v-0.42Zm-2.53.5a0.94,0.94,0,0,0-.46-0.46,1.53,1.53,0,0,0-.64-0.13,1.67,1.67,0,0,0-.45.06,1.26,1.26,0,0,0-.39.18,0.88,0.88,0,0,0-.27.31,0.92,0.92,0,0,0-.1.44,0.72,0.72,0,0,0,.1.39,0.89,0.89,0,0,0,.23.26,1.07,1.07,0,0,0,.28.15l0.23,0.07,0.45,0.1a1.6,1.6,0,0,1,.44.17,0.38,0.38,0,0,1,.18.35,0.44,0.44,0,0,1-.07.24l-0.17.17a0.81,0.81,0,0,1-.25.1,1.28,1.28,0,0,1-.28,0,0.94,0.94,0,0,1-.51-0.13,1.1,1.1,0,0,1-.35-0.36l-0.4.27a1.29,1.29,0,0,0,.56.49,1.73,1.73,0,0,0,.7.14,2,2,0,0,0,.47-0.06,1.21,1.21,0,0,0,.41-0.18,0.89,0.89,0,0,0,.4-0.77,0.8,0.8,0,0,0-.23-0.58,1.11,1.11,0,0,0-.57-0.31l-0.47-.11a1.59,1.59,0,0,1-.48-0.18,0.37,0.37,0,0,1-.16-0.34l0.06-.22,0.16-.15,0.22-.09,0.24,0a0.74,0.74,0,0,1,.43.12,0.86,0.86,0,0,1,.28.32Zm-3.2,2.77c0-.12,0-0.25,0-0.38s0-.25,0-0.34v-2.55h-0.46v1.68a1.45,1.45,0,0,1-.14.7,1.12,1.12,0,0,1-.32.38,0.86,0.86,0,0,1-.34.15l-0.2,0a1.09,1.09,0,0,1-.43-0.07,0.63,0.63,0,0,1-.27-0.22,0.92,0.92,0,0,1-.14-0.35,2.53,2.53,0,0,1,0-.48v-1.81h-0.46v2.08a1.37,1.37,0,0,0,.3.95,1.2,1.2,0,0,0,.93.33,1.21,1.21,0,0,0,.33,0,1.45,1.45,0,0,0,.31-0.13,1.29,1.29,0,0,0,.27-0.19l0.2-.25h0v0.26l0,0.26H530Zm-3.85-5.29h-0.46v2.56h0a1.2,1.2,0,0,0-.27-0.29,1.65,1.65,0,0,0-.32-0.2,1.55,1.55,0,0,0-.35-0.11,1.8,1.8,0,0,0-.34,0,1.85,1.85,0,0,0-.7.13,1.65,1.65,0,0,0-.55.36,1.67,1.67,0,0,0-.36.55,1.89,1.89,0,0,0,0,1.37,1.67,1.67,0,0,0,.36.55,1.65,1.65,0,0,0,.55.36,1.85,1.85,0,0,0,.7.13,1.76,1.76,0,0,0,.34,0,1.55,1.55,0,0,0,.35-0.11,1.65,1.65,0,0,0,.32-0.2,1.2,1.2,0,0,0,.27-0.29h0v0.55h0.46v-5.29Zm-2.9,3.14a1.23,1.23,0,0,1,.25-0.41,1.16,1.16,0,0,1,.39-0.28,1.25,1.25,0,0,1,.51-0.1,1.33,1.33,0,0,1,.52.1,1.28,1.28,0,0,1,.42.28,1.26,1.26,0,0,1,.27.41,1.39,1.39,0,0,1,0,1,1.26,1.26,0,0,1-.27.41,1.28,1.28,0,0,1-.42.28,1.33,1.33,0,0,1-.52.1,1.25,1.25,0,0,1-.51-0.1,1.16,1.16,0,0,1-.39-0.28,1.23,1.23,0,0,1-.25-0.41A1.55,1.55,0,0,1,523.22,243.51Zm-4.29-1.13c0,0.12,0,.25,0,0.38s0,0.25,0,.34v2.56h0.46V244a1.45,1.45,0,0,1,.14-0.7,1.1,1.1,0,0,1,.32-0.38,0.86,0.86,0,0,1,.34-0.15l0.2,0a0.77,0.77,0,0,1,.7.29,1.54,1.54,0,0,1,.19.84v1.81h0.46v-2.08a1.36,1.36,0,0,0-.3-0.95,1.19,1.19,0,0,0-.93-0.33,1.21,1.21,0,0,0-.33,0,1.43,1.43,0,0,0-.31.13,1.27,1.27,0,0,0-.27.19l-0.2.25h0v-0.26l0-.26h-0.48Zm-1.14-1.68h-0.5v5h0.5v-5Z" transform="translate(-193.23 -181.25)" fill="#fff"/><path d="M503.41,286.77v-0.21a1.88,1.88,0,0,0-.1-0.63,1.52,1.52,0,0,0-.3-0.52,1.48,1.48,0,0,0-.49-0.35,1.6,1.6,0,0,0-.67-0.13,1.62,1.62,0,0,0-1.18.49,1.66,1.66,0,0,0-.35.55,1.83,1.83,0,0,0-.13.69,1.78,1.78,0,0,0,.13.69,1.71,1.71,0,0,0,.35.55,1.58,1.58,0,0,0,.54.36,1.74,1.74,0,0,0,.68.13,1.81,1.81,0,0,0,.76-0.16,1.76,1.76,0,0,0,.65-0.53l-0.36-.29a1.29,1.29,0,0,1-.41.4,1.17,1.17,0,0,1-.64.17,1.13,1.13,0,0,1-.46-0.09,1.21,1.21,0,0,1-.63-0.62,1.4,1.4,0,0,1-.12-0.46h2.73Zm-2.72-.38a0.86,0.86,0,0,1,.09-0.39,1.16,1.16,0,0,1,.25-0.34,1.23,1.23,0,0,1,.37-0.23,1.13,1.13,0,0,1,.43-0.09,1,1,0,0,1,1.06,1h-2.21Zm-0.95-.9a1.55,1.55,0,0,0-.55-0.42,1.65,1.65,0,0,0-.64-0.14,1.83,1.83,0,0,0-.72.12,1.6,1.6,0,0,0-.55.36,1.53,1.53,0,0,0-.35.55,2.05,2.05,0,0,0,0,1.38,1.53,1.53,0,0,0,.35.55,1.6,1.6,0,0,0,.55.36,1.83,1.83,0,0,0,.72.12,1.66,1.66,0,0,0,.64-0.14,1.55,1.55,0,0,0,.55-0.42l-0.38-.29a1,1,0,0,1-.33.31,0.94,0.94,0,0,1-.49.13,1.21,1.21,0,0,1-.51-0.09,1.13,1.13,0,0,1-.39-0.27,1.18,1.18,0,0,1-.25-0.42,1.66,1.66,0,0,1,0-1,1.19,1.19,0,0,1,.25-0.42,1.14,1.14,0,0,1,.39-0.27,1.21,1.21,0,0,1,.51-0.09,0.94,0.94,0,0,1,.49.13,1,1,0,0,1,.33.31Zm-6.69-.48c0,0.12,0,.25,0,0.38s0,0.25,0,.34v2.56h0.46V286.6a1.45,1.45,0,0,1,.14-0.7,1.1,1.1,0,0,1,.32-0.38,0.86,0.86,0,0,1,.34-0.15l0.2,0a0.77,0.77,0,0,1,.7.29,1.54,1.54,0,0,1,.19.84v1.81h0.46V286.2a1.36,1.36,0,0,0-.3-0.95,1.19,1.19,0,0,0-.93-0.33,1.21,1.21,0,0,0-.33,0,1.43,1.43,0,0,0-.31.13,1.27,1.27,0,0,0-.27.19l-0.2.25h0v-0.26l0-.26h-0.48Zm-0.81,1.76v-0.21a1.88,1.88,0,0,0-.1-0.63,1.52,1.52,0,0,0-.3-0.52,1.48,1.48,0,0,0-.49-0.35,1.6,1.6,0,0,0-.67-0.13,1.62,1.62,0,0,0-1.18.49,1.66,1.66,0,0,0-.35.55,1.83,1.83,0,0,0-.13.69,1.78,1.78,0,0,0,.13.69,1.71,1.71,0,0,0,.35.55,1.58,1.58,0,0,0,.54.36,1.74,1.74,0,0,0,.68.13,1.81,1.81,0,0,0,.76-0.16,1.76,1.76,0,0,0,.65-0.53l-0.36-.29a1.29,1.29,0,0,1-.41.4,1.17,1.17,0,0,1-.64.17,1.13,1.13,0,0,1-.46-0.09,1.21,1.21,0,0,1-.63-0.62,1.4,1.4,0,0,1-.12-0.46h2.73Zm-2.72-.38a0.86,0.86,0,0,1,.09-0.39,1.16,1.16,0,0,1,.25-0.34,1.23,1.23,0,0,1,.37-0.23,1.13,1.13,0,0,1,.43-0.09,1,1,0,0,1,1.06,1h-2.21Zm-1-1.39h-0.95v-0.92h-0.46V285h-0.69v0.42h0.69v2.06a1.06,1.06,0,0,0,.08.44,0.72,0.72,0,0,0,.2.27,0.65,0.65,0,0,0,.26.13,1.17,1.17,0,0,0,.28,0,1.48,1.48,0,0,0,.62-0.12l0-.43-0.23.09-0.25,0-0.19,0-0.15-.09-0.1-.18a1,1,0,0,1,0-.3v-1.93h0.95V285Zm-2.53.5a0.94,0.94,0,0,0-.46-0.46,1.53,1.53,0,0,0-.64-0.13,1.67,1.67,0,0,0-.45.06,1.26,1.26,0,0,0-.39.18,0.88,0.88,0,0,0-.27.31,0.92,0.92,0,0,0-.1.44,0.72,0.72,0,0,0,.1.39,0.89,0.89,0,0,0,.23.26,1.07,1.07,0,0,0,.28.15l0.23,0.07,0.45,0.1a1.6,1.6,0,0,1,.44.17,0.38,0.38,0,0,1,.18.35,0.44,0.44,0,0,1-.07.24l-0.17.17a0.81,0.81,0,0,1-.25.1,1.28,1.28,0,0,1-.28,0,0.94,0.94,0,0,1-.51-0.13,1.1,1.1,0,0,1-.35-0.36l-0.4.27a1.29,1.29,0,0,0,.56.49,1.73,1.73,0,0,0,.7.14,2,2,0,0,0,.47-0.06,1.21,1.21,0,0,0,.41-0.18,0.89,0.89,0,0,0,.4-0.77,0.8,0.8,0,0,0-.23-0.58,1.11,1.11,0,0,0-.57-0.31l-0.47-.11a1.59,1.59,0,0,1-.48-0.18,0.37,0.37,0,0,1-.16-0.34l0.06-.22,0.16-.15,0.22-.09,0.24,0a0.74,0.74,0,0,1,.43.12,0.86,0.86,0,0,1,.28.32Zm-3.26-.5h-0.46v3.28h0.46V285Zm0-1.5-0.23-.09-0.23.09a0.33,0.33,0,0,0,0,.48l0.23,0.09,0.23-.09A0.33,0.33,0,0,0,482.78,283.51Zm-1.4,2a0.94,0.94,0,0,0-.46-0.46,1.53,1.53,0,0,0-.64-0.13,1.67,1.67,0,0,0-.45.06,1.26,1.26,0,0,0-.39.18,0.88,0.88,0,0,0-.27.31,0.92,0.92,0,0,0-.1.44,0.72,0.72,0,0,0,.1.39,0.89,0.89,0,0,0,.23.26,1.07,1.07,0,0,0,.28.15l0.23,0.07,0.45,0.1a1.6,1.6,0,0,1,.44.17,0.38,0.38,0,0,1,.18.35,0.44,0.44,0,0,1-.07.24l-0.17.17a0.81,0.81,0,0,1-.25.1,1.28,1.28,0,0,1-.28,0,0.94,0.94,0,0,1-.51-0.13,1.1,1.1,0,0,1-.35-0.36l-0.4.27a1.29,1.29,0,0,0,.56.49,1.73,1.73,0,0,0,.7.14,2,2,0,0,0,.47-0.06,1.21,1.21,0,0,0,.41-0.18,0.89,0.89,0,0,0,.4-0.77,0.8,0.8,0,0,0-.23-0.58,1.11,1.11,0,0,0-.57-0.31l-0.47-.11a1.59,1.59,0,0,1-.48-0.18,0.37,0.37,0,0,1-.16-0.34l0.06-.22,0.16-.15,0.22-.09,0.24,0a0.74,0.74,0,0,1,.43.12,0.86,0.86,0,0,1,.28.32ZM475,288.28h0.46v-0.55h0a1.2,1.2,0,0,0,.27.29,1.65,1.65,0,0,0,.32.2,1.54,1.54,0,0,0,.35.11,1.76,1.76,0,0,0,.34,0,1.85,1.85,0,0,0,.7-0.13,1.62,1.62,0,0,0,.91-0.91,1.88,1.88,0,0,0,0-1.37,1.62,1.62,0,0,0-.91-0.91,1.85,1.85,0,0,0-.7-0.13,1.8,1.8,0,0,0-.34,0,1.55,1.55,0,0,0-.35.11,1.65,1.65,0,0,0-.32.2,1.2,1.2,0,0,0-.27.29h0V283H475v5.29Zm2.9-1.13a1.23,1.23,0,0,1-.25.41,1.17,1.17,0,0,1-.39.28,1.25,1.25,0,0,1-.51.1,1.32,1.32,0,0,1-.53-0.1,1.29,1.29,0,0,1-.41-0.28,1.25,1.25,0,0,1-.27-0.41,1.39,1.39,0,0,1,0-1,1.25,1.25,0,0,1,.27-0.41,1.29,1.29,0,0,1,.41-0.28,1.32,1.32,0,0,1,.53-0.1,1.25,1.25,0,0,1,.51.1,1.17,1.17,0,0,1,.39.28,1.23,1.23,0,0,1,.25.41A1.53,1.53,0,0,1,477.85,287.16Zm-4,1.13c0-.12,0-0.25,0-0.38s0-.25,0-0.34V285h-0.46v1.68a1.45,1.45,0,0,1-.14.7,1.12,1.12,0,0,1-.32.38,0.86,0.86,0,0,1-.34.15l-0.2,0a1.09,1.09,0,0,1-.43-0.07,0.63,0.63,0,0,1-.27-0.22,0.92,0.92,0,0,1-.14-0.35,2.53,2.53,0,0,1,0-.48V285h-0.46v2.08a1.37,1.37,0,0,0,.3.95,1.2,1.2,0,0,0,.93.33,1.21,1.21,0,0,0,.33,0,1.45,1.45,0,0,0,.31-0.13,1.29,1.29,0,0,0,.27-0.19l0.2-.25h0V288l0,0.26h0.48Zm-3.78-4.48a1.65,1.65,0,0,0-.64-0.47,2.1,2.1,0,0,0-.76-0.13,2.08,2.08,0,0,0-.59.08,1.56,1.56,0,0,0-.51.26,1.29,1.29,0,0,0-.36.44,1.35,1.35,0,0,0-.14.62,1.32,1.32,0,0,0,.11.57,1.11,1.11,0,0,0,.29.38,1.61,1.61,0,0,0,.41.25l0.47,0.17,0.47,0.15a1.82,1.82,0,0,1,.41.19,0.94,0.94,0,0,1,.29.29,0.79,0.79,0,0,1,.11.43,0.75,0.75,0,0,1-.1.38,1,1,0,0,1-.25.28,1.09,1.09,0,0,1-.34.17,1.25,1.25,0,0,1-.38.06,1.33,1.33,0,0,1-.68-0.16,1.2,1.2,0,0,1-.45-0.44l-0.46.33a1.65,1.65,0,0,0,.7.56,2.21,2.21,0,0,0,.86.17,1.81,1.81,0,0,0,.58-0.1,1.75,1.75,0,0,0,.53-0.28,1.4,1.4,0,0,0,.38-0.45,1.27,1.27,0,0,0,.14-0.61,1.18,1.18,0,0,0-.19-0.71,1.46,1.46,0,0,0-.47-0.42,2.81,2.81,0,0,0-.61-0.25,5.14,5.14,0,0,1-.61-0.21,1.49,1.49,0,0,1-.47-0.3,0.7,0.7,0,0,1-.19-0.52,0.85,0.85,0,0,1,.09-0.4,0.81,0.81,0,0,1,.24-0.28,1,1,0,0,1,.34-0.16,1.43,1.43,0,0,1,.38-0.05,1.09,1.09,0,0,1,1,.48Z" transform="translate(-193.23 -181.25)" fill="#fff"/><polyline points="312.81 105.16 318.77 105.16 318.77 113.76" fill="none" stroke="#fff" stroke-miterlimit="10" stroke-width="0.25"/><path d="M536.28,274.79h-0.46v5.29h0.46v-5.29Zm-2.33,3.28-0.65,0a2.55,2.55,0,0,0-.67.14,1.25,1.25,0,0,0-.52.34,0.9,0.9,0,0,0-.21.63,0.87,0.87,0,0,0,.09.42,0.91,0.91,0,0,0,.25.3,1.05,1.05,0,0,0,.36.18,1.49,1.49,0,0,0,.42.06,1.46,1.46,0,0,0,.68-0.14,1.25,1.25,0,0,0,.48-0.47h0c0,0.09,0,.18,0,0.27s0,0.18,0,.26h0.45c0-.09,0-0.2,0-0.34s0-.27,0-0.4v-1.46a1.25,1.25,0,0,0-.1-0.52,1.06,1.06,0,0,0-.26-0.36,1,1,0,0,0-.38-0.21,1.51,1.51,0,0,0-.46-0.07,1.85,1.85,0,0,0-1.39.48l0.28,0.33a1.45,1.45,0,0,1,1-.38,0.75,0.75,0,0,1,.84.85v0.08h-0.23Zm0.23,0.38v0.24a1.4,1.4,0,0,1-.06.41,0.89,0.89,0,0,1-.5.56,1.05,1.05,0,0,1-.44.08,1.22,1.22,0,0,1-.28,0,0.75,0.75,0,0,1-.25-0.1l-0.18-.19a0.55,0.55,0,0,1-.07-0.28,0.47,0.47,0,0,1,.17-0.39,1.11,1.11,0,0,1,.41-0.21,2.53,2.53,0,0,1,.5-0.08l0.44,0h0.24Zm-6-1.65c0,0.12,0,.25,0,0.38s0,0.25,0,.34v2.56h0.46v-1.68a1.45,1.45,0,0,1,.14-0.7,1.1,1.1,0,0,1,.32-0.38,0.86,0.86,0,0,1,.34-0.15l0.2,0a0.77,0.77,0,0,1,.7.29,1.54,1.54,0,0,1,.19.84v1.81H531V278a1.36,1.36,0,0,0-.3-0.95,1.19,1.19,0,0,0-.93-0.33,1.21,1.21,0,0,0-.33,0,1.43,1.43,0,0,0-.31.13,1.27,1.27,0,0,0-.27.19l-0.2.25h0v-0.26l0-.26h-0.48Zm-0.93,1a1.67,1.67,0,0,0-.36-0.55,1.64,1.64,0,0,0-.55-0.36,1.85,1.85,0,0,0-.7-0.13,1.83,1.83,0,0,0-.7.13,1.62,1.62,0,0,0-.91.91,1.88,1.88,0,0,0,0,1.37,1.62,1.62,0,0,0,.91.91,1.83,1.83,0,0,0,.7.13,1.85,1.85,0,0,0,.7-0.13,1.64,1.64,0,0,0,.55-0.36,1.67,1.67,0,0,0,.36-0.55A1.88,1.88,0,0,0,527.21,277.76Zm-0.46,1.2a1.23,1.23,0,0,1-.25.41,1.16,1.16,0,0,1-.39.28,1.35,1.35,0,0,1-1,0,1.12,1.12,0,0,1-.38-0.28,1.24,1.24,0,0,1-.25-0.41,1.53,1.53,0,0,1,0-1,1.24,1.24,0,0,1,.25-0.41,1.12,1.12,0,0,1,.38-0.28,1.35,1.35,0,0,1,1,0,1.16,1.16,0,0,1,.39.28,1.23,1.23,0,0,1,.25.41A1.55,1.55,0,0,1,526.75,279Zm-3.83-2.15h-0.46v3.28h0.46v-3.28Zm0-1.5-0.23-.09-0.23.09a0.33,0.33,0,0,0,0,.48l0.23,0.09,0.23-.09A0.33,0.33,0,0,0,522.92,275.31Zm-1.2,1.5h-0.95v-0.92h-0.46v0.92h-0.69v0.42h0.69v2.06a1.06,1.06,0,0,0,.08.44,0.72,0.72,0,0,0,.2.27,0.65,0.65,0,0,0,.26.13,1.17,1.17,0,0,0,.28,0,1.48,1.48,0,0,0,.62-0.12l0-.43-0.23.09-0.25,0-0.19,0-0.15-.09-0.1-.18a1,1,0,0,1,0-.3v-1.93h0.95v-0.42Zm-3.46,1.27-0.65,0a2.55,2.55,0,0,0-.67.14,1.25,1.25,0,0,0-.52.34,0.9,0.9,0,0,0-.21.63,0.87,0.87,0,0,0,.09.42,0.91,0.91,0,0,0,.25.3,1.05,1.05,0,0,0,.36.18,1.49,1.49,0,0,0,.42.06A1.46,1.46,0,0,0,518,280a1.25,1.25,0,0,0,.48-0.47h0c0,0.09,0,.18,0,0.27s0,0.18,0,.26H519c0-.09,0-0.2,0-0.34s0-.27,0-0.4v-1.46a1.25,1.25,0,0,0-.1-0.52,1.06,1.06,0,0,0-.26-0.36,1,1,0,0,0-.38-0.21,1.51,1.51,0,0,0-.46-0.07,1.85,1.85,0,0,0-1.39.48l0.28,0.33a1.45,1.45,0,0,1,1-.38,0.75,0.75,0,0,1,.84.85v0.08h-0.23Zm0.23,0.38v0.24a1.4,1.4,0,0,1-.06.41,0.89,0.89,0,0,1-.5.56,1.05,1.05,0,0,1-.44.08,1.22,1.22,0,0,1-.28,0,0.75,0.75,0,0,1-.25-0.1l-0.18-.19a0.55,0.55,0,0,1-.07-0.28,0.47,0.47,0,0,1,.17-0.39,1.11,1.11,0,0,1,.41-0.21,2.53,2.53,0,0,1,.5-0.08l0.44,0h0.24Zm-2.94.12v-0.21a1.88,1.88,0,0,0-.1-0.63,1.52,1.52,0,0,0-.3-0.52,1.48,1.48,0,0,0-.49-0.35,1.6,1.6,0,0,0-.67-0.13,1.62,1.62,0,0,0-1.18.49,1.66,1.66,0,0,0-.35.55,1.83,1.83,0,0,0-.13.69,1.78,1.78,0,0,0,.13.69,1.71,1.71,0,0,0,.35.55,1.58,1.58,0,0,0,.54.36,1.74,1.74,0,0,0,.68.13,1.81,1.81,0,0,0,.76-0.16,1.76,1.76,0,0,0,.65-0.53l-0.36-.29a1.29,1.29,0,0,1-.41.4,1.17,1.17,0,0,1-.64.17,1.13,1.13,0,0,1-.46-0.09,1.21,1.21,0,0,1-.63-0.62,1.4,1.4,0,0,1-.12-0.46h2.73Zm-2.72-.38a0.86,0.86,0,0,1,.09-0.39,1.16,1.16,0,0,1,.25-0.34,1.23,1.23,0,0,1,.37-0.23,1.13,1.13,0,0,1,.43-0.09,1,1,0,0,1,1.06,1h-2.21Zm-2.49,1.89h0.46v-1.85a1.15,1.15,0,0,1,.06-0.35,1.09,1.09,0,0,1,.19-0.34,1,1,0,0,1,.32-0.26,1,1,0,0,1,.46-0.1,0.77,0.77,0,0,1,.27,0l0.09-.46a1.24,1.24,0,0,0-.34,0,1.17,1.17,0,0,0-.39.06,1.07,1.07,0,0,0-.3.16l-0.22.22-0.14.26h0v-0.61h-0.46q0,0.36,0,.58c0,0.15,0,.3,0,0.44v2.25Zm-0.66-2.79a1.55,1.55,0,0,0-.55-0.42,1.65,1.65,0,0,0-.64-0.14,1.83,1.83,0,0,0-.72.12,1.6,1.6,0,0,0-.55.36,1.53,1.53,0,0,0-.35.55,2.05,2.05,0,0,0,0,1.38,1.53,1.53,0,0,0,.35.55,1.6,1.6,0,0,0,.55.36,1.83,1.83,0,0,0,.72.12,1.66,1.66,0,0,0,.64-0.14,1.55,1.55,0,0,0,.55-0.42l-0.38-.29a1,1,0,0,1-.33.31,0.94,0.94,0,0,1-.49.13,1.21,1.21,0,0,1-.51-0.09,1.13,1.13,0,0,1-.39-0.27,1.18,1.18,0,0,1-.25-0.42,1.66,1.66,0,0,1,0-1,1.19,1.19,0,0,1,.25-0.42,1.14,1.14,0,0,1,.39-0.27,1.21,1.21,0,0,1,.51-0.09,0.94,0.94,0,0,1,.49.13,1,1,0,0,1,.33.31Zm-3.6,1.28v-0.21a1.88,1.88,0,0,0-.1-0.63,1.52,1.52,0,0,0-.3-0.52,1.48,1.48,0,0,0-.49-0.35,1.6,1.6,0,0,0-.67-0.13,1.62,1.62,0,0,0-1.18.49,1.66,1.66,0,0,0-.35.55,1.83,1.83,0,0,0-.13.69,1.78,1.78,0,0,0,.13.69,1.71,1.71,0,0,0,.35.55,1.58,1.58,0,0,0,.54.36,1.74,1.74,0,0,0,.68.13,1.81,1.81,0,0,0,.76-0.16,1.76,1.76,0,0,0,.65-0.53l-0.36-.29a1.29,1.29,0,0,1-.41.4,1.17,1.17,0,0,1-.64.17,1.13,1.13,0,0,1-.46-0.09,1.21,1.21,0,0,1-.63-0.62,1.4,1.4,0,0,1-.12-0.46h2.73Zm-2.72-.38a0.86,0.86,0,0,1,.09-0.39,1.16,1.16,0,0,1,.25-0.34,1.23,1.23,0,0,1,.37-0.23,1.13,1.13,0,0,1,.43-0.09,1,1,0,0,1,1.06,1h-2.21Zm-3.82-.41h0.84l1.36,2.3h0.62l-1.43-2.35a1.4,1.4,0,0,0,.94-0.41,1.24,1.24,0,0,0,.33-0.87,1.17,1.17,0,0,0-.44-1,1.94,1.94,0,0,0-1.19-.33h-1.53v5h0.5v-2.3Zm0-2.19h0.9a2.13,2.13,0,0,1,.57.07,1,1,0,0,1,.37.19,0.7,0.7,0,0,1,.2.28,0.89,0.89,0,0,1,.06.33,0.91,0.91,0,0,1-.06.34,0.67,0.67,0,0,1-.2.27,1.05,1.05,0,0,1-.37.19,2,2,0,0,1-.57.07h-0.9v-1.73Z" transform="translate(-193.23 -181.25)" fill="#fff"/><polyline points="345.95 96.96 351.91 96.96 351.91 110.48" fill="none" stroke="#fff" stroke-miterlimit="10" stroke-width="0.25"/><path d="M555.5,320.88a1.66,1.66,0,0,0-.51.62,2.76,2.76,0,0,0-.25.83,5.92,5.92,0,0,0,0,1.73,2.76,2.76,0,0,0,.25.83,1.66,1.66,0,0,0,.51.62,1.63,1.63,0,0,0,1.72,0,1.67,1.67,0,0,0,.51-0.62,2.79,2.79,0,0,0,.25-0.83,6,6,0,0,0,0-1.73,2.79,2.79,0,0,0-.25-0.83,1.67,1.67,0,0,0-.51-0.62A1.63,1.63,0,0,0,555.5,320.88Zm1.5,0.43a1.37,1.37,0,0,1,.35.54,2.65,2.65,0,0,1,.15.69q0,0.36,0,.66t0,0.66a2.65,2.65,0,0,1-.15.69,1.38,1.38,0,0,1-.35.54,1.05,1.05,0,0,1-1.28,0,1.36,1.36,0,0,1-.35-0.54,2.61,2.61,0,0,1-.15-0.69q0-.36,0-0.66t0-.66a2.61,2.61,0,0,1,.15-0.69,1.36,1.36,0,0,1,.35-0.54A1.05,1.05,0,0,1,557,321.31Zm-4-.6h-0.45l-1.26,1,0.32,0.38,0.89-.78v4.33H553v-5Zm-5.24.16a1.66,1.66,0,0,0-.51.62,2.76,2.76,0,0,0-.25.83,5.92,5.92,0,0,0,0,1.73,2.76,2.76,0,0,0,.25.83,1.66,1.66,0,0,0,.51.62,1.63,1.63,0,0,0,1.72,0,1.67,1.67,0,0,0,.51-0.62,2.79,2.79,0,0,0,.25-0.83,6,6,0,0,0,0-1.73,2.79,2.79,0,0,0-.25-0.83,1.67,1.67,0,0,0-.51-0.62A1.63,1.63,0,0,0,547.72,320.88Zm1.5,0.43a1.37,1.37,0,0,1,.35.54,2.65,2.65,0,0,1,.15.69q0,0.36,0,.66t0,0.66a2.65,2.65,0,0,1-.15.69,1.38,1.38,0,0,1-.35.54,1.05,1.05,0,0,1-1.28,0,1.36,1.36,0,0,1-.35-0.54,2.61,2.61,0,0,1-.15-0.69q0-.36,0-0.66t0-.66a2.61,2.61,0,0,1,.15-0.69,1.36,1.36,0,0,1,.35-0.54A1.05,1.05,0,0,1,549.22,321.31Zm-3,3.9h-2.6l1.56-1.55,0.37-.37a3.07,3.07,0,0,0,.32-0.4,2.13,2.13,0,0,0,.23-0.45,1.5,1.5,0,0,0,.09-0.52,1.23,1.23,0,0,0-.12-0.56,1.17,1.17,0,0,0-.33-0.4,1.43,1.43,0,0,0-.48-0.24,2,2,0,0,0-.57-0.08,1.54,1.54,0,0,0-1,.31,1.39,1.39,0,0,0-.51.87l0.53,0.06a1,1,0,0,1,.34-0.57,1,1,0,0,1,.64-0.21,1.14,1.14,0,0,1,.37.06,1,1,0,0,1,.31.17,0.77,0.77,0,0,1,.21.27,0.87,0.87,0,0,1,.07.36,0.94,0.94,0,0,1-.06.32,1.42,1.42,0,0,1-.15.29,2.23,2.23,0,0,1-.2.27l-0.22.24-2,2v0.58h3.15v-0.46Z" transform="translate(-193.23 -181.25)" fill="#58595b"/><path d="M529.32,320.72h-2.53l0,2.57a2.53,2.53,0,0,1,.5-0.2,1.94,1.94,0,0,1,.53-0.07,1.39,1.39,0,0,1,.49.08,1.09,1.09,0,0,1,.38.24,1.13,1.13,0,0,1,.25.37,1.22,1.22,0,0,1,.09.48,1.09,1.09,0,0,1-.32.78,1.15,1.15,0,0,1-.35.23,1.1,1.1,0,0,1-.44.09,1,1,0,0,1-.58-0.17,1.14,1.14,0,0,1-.39-0.47l-0.5.22a1.46,1.46,0,0,0,.58.66,1.63,1.63,0,0,0,.85.22,1.8,1.8,0,0,0,.66-0.12,1.59,1.59,0,0,0,.53-0.33,1.51,1.51,0,0,0,.35-0.51,1.66,1.66,0,0,0,.13-0.65,1.7,1.7,0,0,0-.12-0.63,1.53,1.53,0,0,0-.32-0.5,1.44,1.44,0,0,0-.49-0.33,1.64,1.64,0,0,0-.64-0.12l-0.34,0a1.66,1.66,0,0,0-.33.09l0-1.49h2v-0.46Zm-6.06.16a1.66,1.66,0,0,0-.51.62,2.76,2.76,0,0,0-.25.83,5.92,5.92,0,0,0,0,1.73,2.76,2.76,0,0,0,.25.83,1.66,1.66,0,0,0,.51.62,1.63,1.63,0,0,0,1.72,0,1.67,1.67,0,0,0,.51-0.62,2.79,2.79,0,0,0,.25-0.83,6,6,0,0,0,0-1.73,2.79,2.79,0,0,0-.25-0.83,1.67,1.67,0,0,0-.51-0.62A1.63,1.63,0,0,0,523.26,320.88Zm1.5,0.43a1.37,1.37,0,0,1,.35.54,2.65,2.65,0,0,1,.15.69q0,0.36,0,.66t0,0.66a2.65,2.65,0,0,1-.15.69,1.38,1.38,0,0,1-.35.54,1.05,1.05,0,0,1-1.28,0,1.36,1.36,0,0,1-.35-0.54,2.61,2.61,0,0,1-.15-0.69q0-.36,0-0.66t0-.66a2.61,2.61,0,0,1,.15-0.69,1.36,1.36,0,0,1,.35-0.54A1.05,1.05,0,0,1,524.76,321.31Zm-5.39-.43a1.66,1.66,0,0,0-.51.62,2.76,2.76,0,0,0-.25.83,5.92,5.92,0,0,0,0,1.73,2.76,2.76,0,0,0,.25.83,1.66,1.66,0,0,0,.51.62,1.63,1.63,0,0,0,1.72,0,1.67,1.67,0,0,0,.51-0.62,2.79,2.79,0,0,0,.25-0.83,6,6,0,0,0,0-1.73,2.79,2.79,0,0,0-.25-0.83,1.67,1.67,0,0,0-.51-0.62A1.63,1.63,0,0,0,519.37,320.88Zm1.5,0.43a1.37,1.37,0,0,1,.35.54,2.65,2.65,0,0,1,.15.69q0,0.36,0,.66t0,0.66a2.65,2.65,0,0,1-.15.69,1.38,1.38,0,0,1-.35.54,1.05,1.05,0,0,1-1.28,0,1.36,1.36,0,0,1-.35-0.54,2.61,2.61,0,0,1-.15-0.69q0-.36,0-0.66t0-.66a2.61,2.61,0,0,1,.15-0.69,1.36,1.36,0,0,1,.35-0.54A1.05,1.05,0,0,1,520.87,321.31Zm-3,3.9h-2.6l1.56-1.55,0.37-.37a3.07,3.07,0,0,0,.32-0.4,2.13,2.13,0,0,0,.23-0.45,1.5,1.5,0,0,0,.09-0.52,1.23,1.23,0,0,0-.12-0.56,1.17,1.17,0,0,0-.33-0.4,1.43,1.43,0,0,0-.48-0.24,2,2,0,0,0-.57-0.08,1.54,1.54,0,0,0-1,.31,1.39,1.39,0,0,0-.51.87l0.53,0.06a1,1,0,0,1,.34-0.57,1,1,0,0,1,.64-0.21,1.14,1.14,0,0,1,.37.06,1,1,0,0,1,.31.17,0.77,0.77,0,0,1,.21.27,0.87,0.87,0,0,1,.07.36,0.94,0.94,0,0,1-.06.32,1.42,1.42,0,0,1-.15.29,2.23,2.23,0,0,1-.2.27l-0.22.24-2,2v0.58h3.15v-0.46Z" transform="translate(-193.23 -181.25)" fill="#58595b"/><path d="M498.8,320.88a1.66,1.66,0,0,0-.51.62,2.76,2.76,0,0,0-.25.83,5.92,5.92,0,0,0,0,1.73,2.76,2.76,0,0,0,.25.83,1.66,1.66,0,0,0,.51.62,1.63,1.63,0,0,0,1.72,0,1.67,1.67,0,0,0,.51-0.62,2.79,2.79,0,0,0,.25-0.83,6,6,0,0,0,0-1.73,2.79,2.79,0,0,0-.25-0.83,1.67,1.67,0,0,0-.51-0.62A1.63,1.63,0,0,0,498.8,320.88Zm1.5,0.43a1.37,1.37,0,0,1,.35.54,2.65,2.65,0,0,1,.15.69q0,0.36,0,.66t0,0.66a2.65,2.65,0,0,1-.15.69,1.38,1.38,0,0,1-.35.54,1.05,1.05,0,0,1-1.28,0,1.36,1.36,0,0,1-.35-0.54,2.61,2.61,0,0,1-.15-0.69q0-.36,0-0.66t0-.66a2.61,2.61,0,0,1,.15-0.69,1.36,1.36,0,0,1,.35-0.54A1.05,1.05,0,0,1,500.3,321.31Zm-5.39-.43a1.66,1.66,0,0,0-.51.62,2.76,2.76,0,0,0-.25.83,5.92,5.92,0,0,0,0,1.73,2.76,2.76,0,0,0,.25.83,1.66,1.66,0,0,0,.51.62,1.63,1.63,0,0,0,1.72,0,1.67,1.67,0,0,0,.51-0.62,2.79,2.79,0,0,0,.25-0.83,6,6,0,0,0,0-1.73,2.79,2.79,0,0,0-.25-0.83,1.67,1.67,0,0,0-.51-0.62A1.63,1.63,0,0,0,494.91,320.88Zm1.5,0.43a1.37,1.37,0,0,1,.35.54,2.65,2.65,0,0,1,.15.69q0,0.36,0,.66t0,0.66a2.65,2.65,0,0,1-.15.69,1.38,1.38,0,0,1-.35.54,1.05,1.05,0,0,1-1.28,0,1.36,1.36,0,0,1-.35-0.54,2.61,2.61,0,0,1-.15-0.69q0-.36,0-0.66t0-.66a2.61,2.61,0,0,1,.15-0.69,1.36,1.36,0,0,1,.35-0.54A1.05,1.05,0,0,1,496.41,321.31Zm-5.39-.43a1.66,1.66,0,0,0-.51.62,2.76,2.76,0,0,0-.25.83,5.92,5.92,0,0,0,0,1.73,2.76,2.76,0,0,0,.25.83,1.66,1.66,0,0,0,.51.62,1.63,1.63,0,0,0,1.72,0,1.67,1.67,0,0,0,.51-0.62,2.79,2.79,0,0,0,.25-0.83,6,6,0,0,0,0-1.73,2.79,2.79,0,0,0-.25-0.83,1.67,1.67,0,0,0-.51-0.62A1.63,1.63,0,0,0,491,320.88Zm1.5,0.43a1.37,1.37,0,0,1,.35.54,2.65,2.65,0,0,1,.15.69q0,0.36,0,.66t0,0.66a2.65,2.65,0,0,1-.15.69,1.38,1.38,0,0,1-.35.54,1.05,1.05,0,0,1-1.28,0,1.36,1.36,0,0,1-.35-0.54,2.61,2.61,0,0,1-.15-0.69q0-.36,0-0.66t0-.66a2.61,2.61,0,0,1,.15-0.69,1.36,1.36,0,0,1,.35-0.54A1.05,1.05,0,0,1,492.52,321.31Zm-3,3.9h-2.6l1.56-1.55,0.37-.37a3.07,3.07,0,0,0,.32-0.4,2.13,2.13,0,0,0,.23-0.45,1.5,1.5,0,0,0,.09-0.52,1.23,1.23,0,0,0-.12-0.56A1.17,1.17,0,0,0,489,321a1.43,1.43,0,0,0-.48-0.24,2,2,0,0,0-.57-0.08,1.54,1.54,0,0,0-1,.31,1.39,1.39,0,0,0-.51.87l0.53,0.06a1,1,0,0,1,.34-0.57,1,1,0,0,1,.64-0.21,1.14,1.14,0,0,1,.37.06,1,1,0,0,1,.31.17,0.77,0.77,0,0,1,.21.27,0.87,0.87,0,0,1,.07.36,0.94,0.94,0,0,1-.06.32,1.42,1.42,0,0,1-.15.29,2.23,2.23,0,0,1-.2.27l-0.22.24-2,2v0.58h3.15v-0.46Z" transform="translate(-193.23 -181.25)" fill="#58595b"/><path d="M472.62,320.72h-2.53l0,2.57a2.53,2.53,0,0,1,.5-0.2,1.94,1.94,0,0,1,.53-0.07,1.39,1.39,0,0,1,.49.08,1.09,1.09,0,0,1,.38.24,1.13,1.13,0,0,1,.25.37,1.22,1.22,0,0,1,.09.48,1.09,1.09,0,0,1-.32.78,1.15,1.15,0,0,1-.35.23,1.1,1.1,0,0,1-.44.09,1,1,0,0,1-.58-0.17,1.14,1.14,0,0,1-.39-0.47l-0.5.22a1.46,1.46,0,0,0,.58.66,1.63,1.63,0,0,0,.85.22,1.8,1.8,0,0,0,.66-0.12,1.59,1.59,0,0,0,.53-0.33,1.51,1.51,0,0,0,.35-0.51,1.66,1.66,0,0,0,.13-0.65,1.7,1.7,0,0,0-.12-0.63,1.53,1.53,0,0,0-.32-0.5,1.44,1.44,0,0,0-.49-0.33,1.64,1.64,0,0,0-.64-0.12l-0.34,0a1.66,1.66,0,0,0-.33.09l0-1.49h2v-0.46Zm-5.95,5h0.59l1.34-2.18a4.17,4.17,0,0,0,.3-0.61,2,2,0,0,0,.12-0.72,1.56,1.56,0,0,0-.12-0.62,1.41,1.41,0,0,0-.34-0.48,1.53,1.53,0,0,0-.51-0.32,1.91,1.91,0,0,0-1.29,0,1.54,1.54,0,0,0-.51.32,1.41,1.41,0,0,0-.34.48,1.7,1.7,0,0,0,0,1.24,1.45,1.45,0,0,0,.8.8,1.54,1.54,0,0,0,.6.12,1.78,1.78,0,0,0,.37,0,0.85,0.85,0,0,0,.32-0.13h0Zm1.77-3.07a1,1,0,0,1-.58.56,1.34,1.34,0,0,1-.9,0,1,1,0,0,1-.35-0.22,1,1,0,0,1-.23-0.34,1.2,1.2,0,0,1,0-.87,0.94,0.94,0,0,1,.23-0.34,1.07,1.07,0,0,1,.35-0.22,1.28,1.28,0,0,1,.9,0,1.07,1.07,0,0,1,.35.22,1,1,0,0,1,.23.34A1.22,1.22,0,0,1,468.45,322.6Zm-5.67,3.07h0.59l1.34-2.18a4.17,4.17,0,0,0,.3-0.61,2,2,0,0,0,.12-0.72,1.56,1.56,0,0,0-.12-0.62,1.41,1.41,0,0,0-.34-0.48,1.53,1.53,0,0,0-.51-0.32,1.91,1.91,0,0,0-1.29,0,1.54,1.54,0,0,0-.51.32,1.41,1.41,0,0,0-.34.48,1.7,1.7,0,0,0,0,1.24,1.45,1.45,0,0,0,.8.8,1.54,1.54,0,0,0,.6.12,1.78,1.78,0,0,0,.37,0,0.85,0.85,0,0,0,.32-0.13h0Zm1.77-3.07a1,1,0,0,1-.58.56,1.34,1.34,0,0,1-.9,0,1,1,0,0,1-.35-0.22,1,1,0,0,1-.23-0.34,1.2,1.2,0,0,1,0-.87,0.94,0.94,0,0,1,.23-0.34,1.07,1.07,0,0,1,.35-0.22,1.28,1.28,0,0,1,.9,0,1.07,1.07,0,0,1,.35.22,1,1,0,0,1,.23.34A1.22,1.22,0,0,1,464.55,322.6Zm-4.43-1.88h-0.45l-1.26,1,0.32,0.38,0.89-.78v4.33h0.5v-5Z" transform="translate(-193.23 -181.25)" fill="#58595b"/><path d="M442.1,320.88a1.66,1.66,0,0,0-.51.62,2.76,2.76,0,0,0-.25.83,5.92,5.92,0,0,0,0,1.73,2.76,2.76,0,0,0,.25.83,1.66,1.66,0,0,0,.51.62,1.63,1.63,0,0,0,1.72,0,1.67,1.67,0,0,0,.51-0.62,2.79,2.79,0,0,0,.25-0.83,6,6,0,0,0,0-1.73,2.79,2.79,0,0,0-.25-0.83,1.67,1.67,0,0,0-.51-0.62A1.63,1.63,0,0,0,442.1,320.88Zm1.5,0.43a1.37,1.37,0,0,1,.35.54,2.65,2.65,0,0,1,.15.69q0,0.36,0,.66t0,0.66a2.65,2.65,0,0,1-.15.69,1.38,1.38,0,0,1-.35.54,1.05,1.05,0,0,1-1.28,0,1.36,1.36,0,0,1-.35-0.54,2.61,2.61,0,0,1-.15-0.69q0-.36,0-0.66t0-.66a2.61,2.61,0,0,1,.15-0.69,1.36,1.36,0,0,1,.35-0.54A1.05,1.05,0,0,1,443.6,321.31Zm-5.28,4.36h0.59l1.34-2.18a4.17,4.17,0,0,0,.3-0.61,2,2,0,0,0,.12-0.72,1.56,1.56,0,0,0-.12-0.62,1.41,1.41,0,0,0-.34-0.48,1.53,1.53,0,0,0-.51-0.32,1.91,1.91,0,0,0-1.29,0,1.54,1.54,0,0,0-.51.32,1.41,1.41,0,0,0-.34.48,1.7,1.7,0,0,0,0,1.24,1.45,1.45,0,0,0,.8.8,1.54,1.54,0,0,0,.6.12,1.78,1.78,0,0,0,.37,0,0.85,0.85,0,0,0,.32-0.13h0Zm1.77-3.07a1,1,0,0,1-.58.56,1.34,1.34,0,0,1-.9,0,1,1,0,0,1-.35-0.22,1,1,0,0,1-.23-0.34,1.2,1.2,0,0,1,0-.87,0.94,0.94,0,0,1,.23-0.34,1.07,1.07,0,0,1,.35-0.22,1.28,1.28,0,0,1,.9,0,1.07,1.07,0,0,1,.35.22,1,1,0,0,1,.23.34A1.22,1.22,0,0,1,440.1,322.6Zm-5.67,3.07H435l1.34-2.18a4.17,4.17,0,0,0,.3-0.61,2,2,0,0,0,.12-0.72,1.56,1.56,0,0,0-.12-0.62,1.41,1.41,0,0,0-.34-0.48,1.53,1.53,0,0,0-.51-0.32,1.91,1.91,0,0,0-1.29,0,1.54,1.54,0,0,0-.51.32,1.41,1.41,0,0,0-.34.48,1.7,1.7,0,0,0,0,1.24,1.45,1.45,0,0,0,.8.8,1.54,1.54,0,0,0,.6.12,1.78,1.78,0,0,0,.37,0,0.85,0.85,0,0,0,.32-0.13h0Zm1.77-3.07a1,1,0,0,1-.58.56,1.34,1.34,0,0,1-.9,0,1,1,0,0,1-.35-0.22,1,1,0,0,1-.23-0.34,1.2,1.2,0,0,1,0-.87,0.94,0.94,0,0,1,.23-0.34,1.07,1.07,0,0,1,.35-0.22,1.28,1.28,0,0,1,.9,0,1.07,1.07,0,0,1,.35.22,1,1,0,0,1,.23.34A1.22,1.22,0,0,1,436.2,322.6Zm-4.43-1.88h-0.45l-1.26,1,0.32,0.38,0.89-.78v4.33h0.5v-5Z" transform="translate(-193.23 -181.25)" fill="#58595b"/><path d="M415.92,320.72h-2.53l0,2.57a2.53,2.53,0,0,1,.5-0.2,1.94,1.94,0,0,1,.53-0.07,1.39,1.39,0,0,1,.49.08,1.09,1.09,0,0,1,.38.24,1.13,1.13,0,0,1,.25.37,1.22,1.22,0,0,1,.09.48,1.09,1.09,0,0,1-.32.78,1.15,1.15,0,0,1-.35.23,1.1,1.1,0,0,1-.44.09,1,1,0,0,1-.58-0.17,1.14,1.14,0,0,1-.39-0.47l-0.5.22a1.46,1.46,0,0,0,.58.66,1.63,1.63,0,0,0,.85.22,1.8,1.8,0,0,0,.66-0.12,1.59,1.59,0,0,0,.53-0.33,1.51,1.51,0,0,0,.35-0.51,1.66,1.66,0,0,0,.13-0.65,1.7,1.7,0,0,0-.12-0.63,1.53,1.53,0,0,0-.32-0.5,1.44,1.44,0,0,0-.49-0.33,1.64,1.64,0,0,0-.64-0.12l-0.34,0a1.66,1.66,0,0,0-.33.09l0-1.49h2v-0.46ZM410.08,323a1.18,1.18,0,0,0-.67.46,1.4,1.4,0,0,0-.25.84,1.27,1.27,0,0,0,.13.58,1.42,1.42,0,0,0,.34.44,1.49,1.49,0,0,0,.5.28,1.87,1.87,0,0,0,1.2,0,1.48,1.48,0,0,0,.5-0.28,1.43,1.43,0,0,0,.34-0.44,1.28,1.28,0,0,0,.13-0.58,1.4,1.4,0,0,0-.25-0.84,1.18,1.18,0,0,0-.67-0.46h0a1,1,0,0,0,.3-0.16,1.11,1.11,0,0,0,.23-0.26,1.31,1.31,0,0,0,.15-0.32,1.2,1.2,0,0,0,.06-0.36,1.25,1.25,0,0,0-.11-0.54,1.23,1.23,0,0,0-.3-0.41,1.34,1.34,0,0,0-.44-0.26,1.6,1.6,0,0,0-1.06,0,1.35,1.35,0,0,0-.44.26,1.24,1.24,0,0,0-.3.41,1.26,1.26,0,0,0-.11.54,1.17,1.17,0,0,0,.06.36,1.3,1.3,0,0,0,.15.32,1.1,1.1,0,0,0,.24.26,1,1,0,0,0,.3.16h0Zm1.46-.73a0.82,0.82,0,0,1-.19.28,0.88,0.88,0,0,1-.28.18,1,1,0,0,1-.7,0,0.87,0.87,0,0,1-.28-0.18,0.79,0.79,0,0,1-.19-0.28,1,1,0,0,1,0-.7,0.8,0.8,0,0,1,.19-0.28,0.87,0.87,0,0,1,.28-0.18,1,1,0,0,1,.7,0,0.88,0.88,0,0,1,.28.18,0.83,0.83,0,0,1,.19.28A1,1,0,0,1,411.54,322.32Zm0.17,2.36a1,1,0,0,1-.21.32,1,1,0,0,1-.34.21,1.29,1.29,0,0,1-.88,0,1,1,0,0,1-.33-0.21,1,1,0,0,1-.21-0.32,1.09,1.09,0,0,1,0-.8,1,1,0,0,1,.21-0.32,1,1,0,0,1,.33-0.21,1.29,1.29,0,0,1,.88,0,1,1,0,0,1,.34.21,1,1,0,0,1,.21.32A1.09,1.09,0,0,1,411.71,324.68Zm-5.63,1h0.59L408,323.5a4.17,4.17,0,0,0,.3-0.61,2,2,0,0,0,.12-0.72,1.56,1.56,0,0,0-.12-0.62,1.41,1.41,0,0,0-.34-0.48,1.53,1.53,0,0,0-.51-0.32,1.91,1.91,0,0,0-1.29,0,1.54,1.54,0,0,0-.51.32,1.41,1.41,0,0,0-.34.48,1.7,1.7,0,0,0,0,1.24,1.45,1.45,0,0,0,.8.8,1.54,1.54,0,0,0,.6.12,1.78,1.78,0,0,0,.37,0,0.85,0.85,0,0,0,.32-0.13h0Zm1.77-3.07a1,1,0,0,1-.58.56,1.34,1.34,0,0,1-.9,0,1,1,0,0,1-.35-0.22,1,1,0,0,1-.23-0.34,1.2,1.2,0,0,1,0-.87,0.94,0.94,0,0,1,.23-0.34,1.07,1.07,0,0,1,.35-0.22,1.28,1.28,0,0,1,.9,0,1.07,1.07,0,0,1,.35.22,1,1,0,0,1,.23.34A1.22,1.22,0,0,1,407.86,322.6Zm-4.43-1.88H403l-1.26,1,0.32,0.38,0.89-.78v4.33h0.5v-5Z" transform="translate(-193.23 -181.25)" fill="#58595b"/><path d="M385.4,320.88a1.66,1.66,0,0,0-.51.62,2.76,2.76,0,0,0-.25.83,5.92,5.92,0,0,0,0,1.73,2.76,2.76,0,0,0,.25.83,1.66,1.66,0,0,0,.51.62,1.63,1.63,0,0,0,1.72,0,1.67,1.67,0,0,0,.51-0.62,2.79,2.79,0,0,0,.25-0.83,6,6,0,0,0,0-1.73,2.79,2.79,0,0,0-.25-0.83,1.67,1.67,0,0,0-.51-0.62A1.63,1.63,0,0,0,385.4,320.88Zm1.5,0.43a1.37,1.37,0,0,1,.35.54,2.65,2.65,0,0,1,.15.69q0,0.36,0,.66t0,0.66a2.65,2.65,0,0,1-.15.69,1.38,1.38,0,0,1-.35.54,1.05,1.05,0,0,1-1.28,0,1.36,1.36,0,0,1-.35-0.54,2.61,2.61,0,0,1-.15-0.69q0-.36,0-0.66t0-.66a2.61,2.61,0,0,1,.15-0.69,1.36,1.36,0,0,1,.35-0.54A1.05,1.05,0,0,1,386.9,321.31ZM381.73,323a1.18,1.18,0,0,0-.67.46,1.4,1.4,0,0,0-.25.84,1.27,1.27,0,0,0,.13.58,1.42,1.42,0,0,0,.34.44,1.49,1.49,0,0,0,.5.28,1.87,1.87,0,0,0,1.2,0,1.48,1.48,0,0,0,.5-0.28,1.43,1.43,0,0,0,.34-0.44,1.28,1.28,0,0,0,.13-0.58,1.4,1.4,0,0,0-.25-0.84A1.18,1.18,0,0,0,383,323h0a1,1,0,0,0,.3-0.16,1.11,1.11,0,0,0,.23-0.26,1.31,1.31,0,0,0,.15-0.32,1.2,1.2,0,0,0,.06-0.36,1.25,1.25,0,0,0-.11-0.54,1.23,1.23,0,0,0-.3-0.41,1.34,1.34,0,0,0-.44-0.26,1.6,1.6,0,0,0-1.06,0,1.35,1.35,0,0,0-.44.26,1.24,1.24,0,0,0-.3.41,1.26,1.26,0,0,0-.11.54,1.17,1.17,0,0,0,.06.36,1.3,1.3,0,0,0,.15.32,1.1,1.1,0,0,0,.24.26,1,1,0,0,0,.3.16h0Zm1.46-.73a0.82,0.82,0,0,1-.19.28,0.88,0.88,0,0,1-.28.18,1,1,0,0,1-.7,0,0.87,0.87,0,0,1-.28-0.18,0.79,0.79,0,0,1-.19-0.28,1,1,0,0,1,0-.7,0.8,0.8,0,0,1,.19-0.28,0.87,0.87,0,0,1,.28-0.18,1,1,0,0,1,.7,0,0.88,0.88,0,0,1,.28.18,0.83,0.83,0,0,1,.19.28A1,1,0,0,1,383.19,322.32Zm0.17,2.36a1,1,0,0,1-.21.32,1,1,0,0,1-.34.21,1.29,1.29,0,0,1-.88,0,1,1,0,0,1-.33-0.21,1,1,0,0,1-.21-0.32,1.09,1.09,0,0,1,0-.8,1,1,0,0,1,.21-0.32,1,1,0,0,1,.33-0.21,1.29,1.29,0,0,1,.88,0,1,1,0,0,1,.34.21,1,1,0,0,1,.21.32A1.09,1.09,0,0,1,383.36,324.68Zm-5.63,1h0.59l1.34-2.18a4.17,4.17,0,0,0,.3-0.61,2,2,0,0,0,.12-0.72,1.56,1.56,0,0,0-.12-0.62,1.41,1.41,0,0,0-.34-0.48,1.53,1.53,0,0,0-.51-0.32,1.91,1.91,0,0,0-1.29,0,1.54,1.54,0,0,0-.51.32,1.41,1.41,0,0,0-.34.48,1.7,1.7,0,0,0,0,1.24,1.45,1.45,0,0,0,.8.8,1.54,1.54,0,0,0,.6.12,1.78,1.78,0,0,0,.37,0,0.85,0.85,0,0,0,.32-0.13h0Zm1.77-3.07a1,1,0,0,1-.58.56,1.34,1.34,0,0,1-.9,0,1,1,0,0,1-.35-0.22,1,1,0,0,1-.23-0.34,1.2,1.2,0,0,1,0-.87,0.94,0.94,0,0,1,.23-0.34,1.07,1.07,0,0,1,.35-0.22,1.28,1.28,0,0,1,.9,0,1.07,1.07,0,0,1,.35.22,1,1,0,0,1,.23.34A1.22,1.22,0,0,1,379.5,322.6Zm-4.43-1.88h-0.45l-1.26,1,0.32,0.38,0.89-.78v4.33h0.5v-5Z" transform="translate(-193.23 -181.25)" fill="#58595b"/><path d="M359.22,320.72h-2.53l0,2.57a2.53,2.53,0,0,1,.5-0.2,1.94,1.94,0,0,1,.53-0.07,1.39,1.39,0,0,1,.49.08,1.09,1.09,0,0,1,.38.24,1.13,1.13,0,0,1,.25.37,1.22,1.22,0,0,1,.09.48,1.09,1.09,0,0,1-.32.78,1.15,1.15,0,0,1-.35.23,1.1,1.1,0,0,1-.44.09,1,1,0,0,1-.58-0.17,1.14,1.14,0,0,1-.39-0.47l-0.5.22a1.46,1.46,0,0,0,.58.66,1.63,1.63,0,0,0,.85.22,1.8,1.8,0,0,0,.66-0.12,1.59,1.59,0,0,0,.53-0.33,1.51,1.51,0,0,0,.35-0.51,1.66,1.66,0,0,0,.13-0.65,1.7,1.7,0,0,0-.12-0.63A1.53,1.53,0,0,0,359,323a1.44,1.44,0,0,0-.49-0.33,1.64,1.64,0,0,0-.64-0.12l-0.34,0a1.66,1.66,0,0,0-.33.09l0-1.49h2v-0.46Zm-3.83,0h-2.94v0.46h2.42l-2,4.49h0.57l2-4.49v-0.46Zm-6,5H350l1.34-2.18a4.17,4.17,0,0,0,.3-0.61,2,2,0,0,0,.12-0.72,1.56,1.56,0,0,0-.12-0.62,1.41,1.41,0,0,0-.34-0.48,1.53,1.53,0,0,0-.51-0.32,1.91,1.91,0,0,0-1.29,0,1.54,1.54,0,0,0-.51.32,1.41,1.41,0,0,0-.34.48,1.7,1.7,0,0,0,0,1.24,1.45,1.45,0,0,0,.8.8,1.54,1.54,0,0,0,.6.12,1.78,1.78,0,0,0,.37,0,0.85,0.85,0,0,0,.32-0.13h0Zm1.77-3.07a1,1,0,0,1-.58.56,1.34,1.34,0,0,1-.9,0,1,1,0,0,1-.35-0.22,1,1,0,0,1-.23-0.34,1.2,1.2,0,0,1,0-.87,0.94,0.94,0,0,1,.23-0.34,1.07,1.07,0,0,1,.35-0.22,1.28,1.28,0,0,1,.9,0,1.07,1.07,0,0,1,.35.22,1,1,0,0,1,.23.34A1.22,1.22,0,0,1,351.15,322.6Zm-4.43-1.88h-0.45l-1.26,1,0.32,0.38,0.89-.78v4.33h0.5v-5Z" transform="translate(-193.23 -181.25)" fill="#58595b"/><path d="M328.7,320.88a1.66,1.66,0,0,0-.51.62,2.76,2.76,0,0,0-.25.83,5.92,5.92,0,0,0,0,1.73,2.76,2.76,0,0,0,.25.83,1.66,1.66,0,0,0,.51.62,1.63,1.63,0,0,0,1.72,0,1.67,1.67,0,0,0,.51-0.62,2.79,2.79,0,0,0,.25-0.83,6,6,0,0,0,0-1.73,2.79,2.79,0,0,0-.25-0.83,1.67,1.67,0,0,0-.51-0.62A1.63,1.63,0,0,0,328.7,320.88Zm1.5,0.43a1.37,1.37,0,0,1,.35.54,2.65,2.65,0,0,1,.15.69q0,0.36,0,.66t0,0.66a2.65,2.65,0,0,1-.15.69,1.38,1.38,0,0,1-.35.54,1.05,1.05,0,0,1-1.28,0,1.36,1.36,0,0,1-.35-0.54,2.61,2.61,0,0,1-.15-0.69q0-.36,0-0.66t0-.66a2.61,2.61,0,0,1,.15-0.69,1.36,1.36,0,0,1,.35-0.54A1.05,1.05,0,0,1,330.2,321.31Zm-3.16-.6H324.1v0.46h2.42l-2,4.49H325l2-4.49v-0.46Zm-6,5h0.59L323,323.5a4.17,4.17,0,0,0,.3-0.61,2,2,0,0,0,.12-0.72,1.56,1.56,0,0,0-.12-0.62,1.41,1.41,0,0,0-.34-0.48,1.53,1.53,0,0,0-.51-0.32,1.91,1.91,0,0,0-1.29,0,1.54,1.54,0,0,0-.51.32,1.41,1.41,0,0,0-.34.48,1.7,1.7,0,0,0,0,1.24,1.45,1.45,0,0,0,.8.8,1.54,1.54,0,0,0,.6.12,1.78,1.78,0,0,0,.37,0,0.85,0.85,0,0,0,.32-0.13h0Zm1.77-3.07a1,1,0,0,1-.58.56,1.34,1.34,0,0,1-.9,0,1,1,0,0,1-.35-0.22,1,1,0,0,1-.23-0.34,1.2,1.2,0,0,1,0-.87,0.94,0.94,0,0,1,.23-0.34,1.07,1.07,0,0,1,.35-0.22,1.28,1.28,0,0,1,.9,0,1.07,1.07,0,0,1,.35.22,1,1,0,0,1,.23.34A1.22,1.22,0,0,1,322.8,322.6Zm-4.43-1.88h-0.45l-1.26,1,0.32,0.38,0.89-.78v4.33h0.5v-5Z" transform="translate(-193.23 -181.25)" fill="#58595b"/><path d="M302.52,320.72H300l0,2.57a2.49,2.49,0,0,1,.5-0.2A1.94,1.94,0,0,1,301,323a1.39,1.39,0,0,1,.49.08,1.1,1.1,0,0,1,.38.24,1.13,1.13,0,0,1,.25.37,1.22,1.22,0,0,1,.09.48,1.09,1.09,0,0,1-.09.43,1.08,1.08,0,0,1-.24.35,1.15,1.15,0,0,1-.35.23,1.1,1.1,0,0,1-.44.09,1,1,0,0,1-.58-0.17,1.15,1.15,0,0,1-.39-0.47l-0.5.22a1.46,1.46,0,0,0,.58.66,1.63,1.63,0,0,0,.85.22,1.79,1.79,0,0,0,.66-0.12,1.6,1.6,0,0,0,.53-0.33,1.51,1.51,0,0,0,.35-0.51,1.66,1.66,0,0,0,.13-0.65,1.7,1.7,0,0,0-.12-0.63,1.54,1.54,0,0,0-.32-0.5,1.44,1.44,0,0,0-.49-0.33,1.64,1.64,0,0,0-.64-0.12l-0.34,0a1.67,1.67,0,0,0-.33.09l0-1.49h2v-0.46Zm-4.45,0h-0.59l-1.34,2.18a4.07,4.07,0,0,0-.3.61,2,2,0,0,0-.12.72,1.57,1.57,0,0,0,.12.62,1.41,1.41,0,0,0,.34.48,1.54,1.54,0,0,0,.51.31,1.91,1.91,0,0,0,1.29,0,1.55,1.55,0,0,0,.51-0.31,1.41,1.41,0,0,0,.34-0.48,1.58,1.58,0,0,0,.12-0.62,1.6,1.6,0,0,0-.12-0.62,1.45,1.45,0,0,0-.8-0.8,1.54,1.54,0,0,0-.6-0.12,1.81,1.81,0,0,0-.37,0,0.85,0.85,0,0,0-.32.13h0Zm-1.77,3.07a1,1,0,0,1,.23-0.34,1.08,1.08,0,0,1,.35-0.22,1.29,1.29,0,0,1,.9,0,1.08,1.08,0,0,1,.35.22,1,1,0,0,1,.23.34,1.22,1.22,0,0,1,0,.87,1,1,0,0,1-.58.56,1.34,1.34,0,0,1-.9,0,1,1,0,0,1-.58-0.56A1.21,1.21,0,0,1,296.3,323.79Zm-3.62,1.88h0.6l1.34-2.18a4.13,4.13,0,0,0,.3-0.61,1.94,1.94,0,0,0,.12-0.72,1.58,1.58,0,0,0-.12-0.62,1.41,1.41,0,0,0-.34-0.48,1.54,1.54,0,0,0-.51-0.32,1.91,1.91,0,0,0-1.29,0,1.54,1.54,0,0,0-.51.32,1.41,1.41,0,0,0-.34.48,1.57,1.57,0,0,0-.12.62,1.6,1.6,0,0,0,.12.62,1.45,1.45,0,0,0,.8.8,1.54,1.54,0,0,0,.6.12,1.77,1.77,0,0,0,.37,0,0.85,0.85,0,0,0,.32-0.13h0Zm1.77-3.07a1,1,0,0,1-.58.56,1.34,1.34,0,0,1-.9,0,1,1,0,0,1-.58-0.56,1.21,1.21,0,0,1,0-.87,1,1,0,0,1,.23-0.34,1.08,1.08,0,0,1,.35-0.22,1.29,1.29,0,0,1,.9,0,1.08,1.08,0,0,1,.35.22,1,1,0,0,1,.23.34A1.22,1.22,0,0,1,294.46,322.6ZM290,320.72h-0.45l-1.26,1,0.31,0.38,0.89-.78v4.33H290v-5Z" transform="translate(-193.23 -181.25)" fill="#58595b"/><path d="M272,320.88a1.66,1.66,0,0,0-.51.62,2.78,2.78,0,0,0-.25.83,6,6,0,0,0,0,1.73,2.78,2.78,0,0,0,.25.83,1.66,1.66,0,0,0,.51.62,1.64,1.64,0,0,0,1.72,0,1.66,1.66,0,0,0,.51-0.62,2.78,2.78,0,0,0,.25-0.83,6,6,0,0,0,0-1.73,2.78,2.78,0,0,0-.25-0.83,1.66,1.66,0,0,0-.51-0.62A1.64,1.64,0,0,0,272,320.88Zm1.5,0.43a1.37,1.37,0,0,1,.35.54,2.61,2.61,0,0,1,.15.69q0,0.36,0,.66t0,0.66a2.61,2.61,0,0,1-.15.69,1.37,1.37,0,0,1-.35.54,1.05,1.05,0,0,1-1.28,0,1.36,1.36,0,0,1-.35-0.54,2.61,2.61,0,0,1-.15-0.69q0-.36,0-0.66t0-.66a2.61,2.61,0,0,1,.15-0.69,1.36,1.36,0,0,1,.35-0.54A1.05,1.05,0,0,1,273.5,321.31Zm-3.78-.6h-0.59l-1.34,2.18a4.07,4.07,0,0,0-.3.61,2,2,0,0,0-.12.72,1.57,1.57,0,0,0,.12.62,1.41,1.41,0,0,0,.34.48,1.54,1.54,0,0,0,.51.31,1.91,1.91,0,0,0,1.29,0,1.55,1.55,0,0,0,.51-0.31,1.41,1.41,0,0,0,.34-0.48,1.58,1.58,0,0,0,.12-0.62,1.6,1.6,0,0,0-.12-0.62,1.45,1.45,0,0,0-.8-0.8,1.54,1.54,0,0,0-.6-0.12,1.81,1.81,0,0,0-.37,0,0.85,0.85,0,0,0-.32.13h0Zm-1.77,3.07a1,1,0,0,1,.23-0.34,1.08,1.08,0,0,1,.35-0.22,1.29,1.29,0,0,1,.9,0,1.08,1.08,0,0,1,.35.22,1,1,0,0,1,.23.34,1.22,1.22,0,0,1,0,.87,1,1,0,0,1-.58.56,1.34,1.34,0,0,1-.9,0,1,1,0,0,1-.58-0.56A1.21,1.21,0,0,1,267.95,323.79Zm-3.62,1.88h0.6l1.34-2.18a4.13,4.13,0,0,0,.3-0.61,1.94,1.94,0,0,0,.12-0.72,1.58,1.58,0,0,0-.12-0.62,1.41,1.41,0,0,0-.34-0.48,1.54,1.54,0,0,0-.51-0.32,1.91,1.91,0,0,0-1.29,0,1.54,1.54,0,0,0-.51.32,1.41,1.41,0,0,0-.34.48,1.57,1.57,0,0,0-.12.62,1.6,1.6,0,0,0,.12.62,1.45,1.45,0,0,0,.8.8,1.54,1.54,0,0,0,.6.12,1.77,1.77,0,0,0,.37,0,0.85,0.85,0,0,0,.32-0.13h0Zm1.77-3.07a1,1,0,0,1-.58.56,1.34,1.34,0,0,1-.9,0,1,1,0,0,1-.58-0.56,1.21,1.21,0,0,1,0-.87,1,1,0,0,1,.23-0.34,1.08,1.08,0,0,1,.35-0.22,1.29,1.29,0,0,1,.9,0,1.08,1.08,0,0,1,.35.22,1,1,0,0,1,.23.34A1.22,1.22,0,0,1,266.11,322.6Zm-4.43-1.88h-0.45l-1.26,1,0.31,0.38,0.89-.78v4.33h0.5v-5Z" transform="translate(-193.23 -181.25)" fill="#58595b"/><path d="M245.82,320.72H243.3l0,2.57a2.49,2.49,0,0,1,.5-0.2,1.94,1.94,0,0,1,.53-0.07,1.39,1.39,0,0,1,.49.08,1.1,1.1,0,0,1,.38.24,1.13,1.13,0,0,1,.25.37,1.22,1.22,0,0,1,.09.48,1.09,1.09,0,0,1-.09.43,1.08,1.08,0,0,1-.24.35,1.15,1.15,0,0,1-.35.23,1.1,1.1,0,0,1-.44.09,1,1,0,0,1-.58-0.17,1.15,1.15,0,0,1-.39-0.47l-0.5.22a1.46,1.46,0,0,0,.58.66,1.63,1.63,0,0,0,.85.22,1.79,1.79,0,0,0,.66-0.12,1.6,1.6,0,0,0,.53-0.33,1.51,1.51,0,0,0,.35-0.51,1.66,1.66,0,0,0,.13-0.65,1.7,1.7,0,0,0-.12-0.63,1.54,1.54,0,0,0-.32-0.5,1.44,1.44,0,0,0-.49-0.33,1.64,1.64,0,0,0-.64-0.12l-0.34,0a1.67,1.67,0,0,0-.33.09l0-1.49h2v-0.46Zm-3.89,0H239.4l0,2.57a2.49,2.49,0,0,1,.5-0.2,1.94,1.94,0,0,1,.53-0.07,1.39,1.39,0,0,1,.49.08,1.1,1.1,0,0,1,.38.24,1.13,1.13,0,0,1,.25.37,1.22,1.22,0,0,1,.09.48,1.09,1.09,0,0,1-.09.43,1.08,1.08,0,0,1-.24.35,1.15,1.15,0,0,1-.35.23,1.1,1.1,0,0,1-.44.09,1,1,0,0,1-.58-0.17,1.15,1.15,0,0,1-.39-0.47l-0.5.22a1.46,1.46,0,0,0,.58.66,1.63,1.63,0,0,0,.85.22,1.79,1.79,0,0,0,.66-0.12,1.6,1.6,0,0,0,.53-0.33,1.51,1.51,0,0,0,.35-0.51,1.66,1.66,0,0,0,.13-0.65,1.7,1.7,0,0,0-.12-0.63,1.54,1.54,0,0,0-.32-0.5,1.44,1.44,0,0,0-.49-0.33,1.64,1.64,0,0,0-.64-0.12l-0.34,0a1.67,1.67,0,0,0-.33.09l0-1.49h2v-0.46Zm-6,5h0.6l1.34-2.18a4.13,4.13,0,0,0,.3-0.61,1.94,1.94,0,0,0,.12-0.72,1.58,1.58,0,0,0-.12-0.62,1.41,1.41,0,0,0-.34-0.48,1.54,1.54,0,0,0-.51-0.32,1.91,1.91,0,0,0-1.29,0,1.54,1.54,0,0,0-.51.32,1.41,1.41,0,0,0-.34.48,1.57,1.57,0,0,0-.12.62,1.6,1.6,0,0,0,.12.62,1.45,1.45,0,0,0,.8.8,1.54,1.54,0,0,0,.6.12,1.77,1.77,0,0,0,.37,0,0.85,0.85,0,0,0,.32-0.13h0Zm1.77-3.07a1,1,0,0,1-.58.56,1.34,1.34,0,0,1-.9,0,1,1,0,0,1-.58-0.56,1.21,1.21,0,0,1,0-.87,1,1,0,0,1,.23-0.34,1.08,1.08,0,0,1,.35-0.22,1.29,1.29,0,0,1,.9,0,1.08,1.08,0,0,1,.35.22,1,1,0,0,1,.23.34A1.22,1.22,0,0,1,237.76,322.6Zm-4.43-1.88h-0.45l-1.26,1,0.31,0.38,0.89-.78v4.33h0.5v-5Z" transform="translate(-193.23 -181.25)" fill="#58595b"/><path d="M215.3,320.88a1.66,1.66,0,0,0-.51.62,2.78,2.78,0,0,0-.25.83,6,6,0,0,0,0,1.73,2.78,2.78,0,0,0,.25.83,1.66,1.66,0,0,0,.51.62,1.64,1.64,0,0,0,1.72,0,1.66,1.66,0,0,0,.51-0.62,2.78,2.78,0,0,0,.25-0.83,6,6,0,0,0,0-1.73,2.78,2.78,0,0,0-.25-0.83,1.66,1.66,0,0,0-.51-0.62A1.64,1.64,0,0,0,215.3,320.88Zm1.5,0.43a1.37,1.37,0,0,1,.35.54,2.61,2.61,0,0,1,.15.69q0,0.36,0,.66t0,0.66a2.61,2.61,0,0,1-.15.69,1.37,1.37,0,0,1-.35.54,1.05,1.05,0,0,1-1.28,0,1.36,1.36,0,0,1-.35-0.54,2.61,2.61,0,0,1-.15-0.69q0-.36,0-0.66t0-.66a2.61,2.61,0,0,1,.15-0.69,1.36,1.36,0,0,1,.35-0.54A1.05,1.05,0,0,1,216.8,321.31Zm-3.22-.6h-2.53l0,2.57a2.49,2.49,0,0,1,.5-0.2A1.94,1.94,0,0,1,212,323a1.39,1.39,0,0,1,.49.08,1.1,1.1,0,0,1,.38.24,1.13,1.13,0,0,1,.25.37,1.22,1.22,0,0,1,.09.48,1.09,1.09,0,0,1-.09.43,1.08,1.08,0,0,1-.24.35,1.15,1.15,0,0,1-.35.23,1.1,1.1,0,0,1-.44.09,1,1,0,0,1-.58-0.17,1.15,1.15,0,0,1-.39-0.47l-0.5.22a1.46,1.46,0,0,0,.58.66,1.63,1.63,0,0,0,.85.22,1.79,1.79,0,0,0,.66-0.12,1.6,1.6,0,0,0,.53-0.33,1.51,1.51,0,0,0,.35-0.51,1.66,1.66,0,0,0,.13-0.65,1.7,1.7,0,0,0-.12-0.63,1.54,1.54,0,0,0-.32-0.5,1.44,1.44,0,0,0-.49-0.33,1.64,1.64,0,0,0-.64-0.12l-0.34,0a1.67,1.67,0,0,0-.33.09l0-1.49h2v-0.46Zm-6,5h0.6l1.34-2.18a4.13,4.13,0,0,0,.3-0.61,1.94,1.94,0,0,0,.12-0.72,1.58,1.58,0,0,0-.12-0.62,1.41,1.41,0,0,0-.34-0.48,1.54,1.54,0,0,0-.51-0.32,1.91,1.91,0,0,0-1.29,0,1.54,1.54,0,0,0-.51.32,1.41,1.41,0,0,0-.34.48,1.57,1.57,0,0,0-.12.62,1.6,1.6,0,0,0,.12.62,1.45,1.45,0,0,0,.8.8,1.54,1.54,0,0,0,.6.12,1.77,1.77,0,0,0,.37,0,0.85,0.85,0,0,0,.32-0.13h0Zm1.77-3.07a1,1,0,0,1-.58.56,1.34,1.34,0,0,1-.9,0,1,1,0,0,1-.58-0.56,1.21,1.21,0,0,1,0-.87,1,1,0,0,1,.23-0.34,1.08,1.08,0,0,1,.35-0.22,1.29,1.29,0,0,1,.9,0,1.08,1.08,0,0,1,.35.22,1,1,0,0,1,.23.34A1.22,1.22,0,0,1,209.4,322.6ZM205,320.72h-0.45l-1.26,1,0.31,0.38,0.89-.78v4.33H205v-5Z" transform="translate(-193.23 -181.25)" fill="#58595b"/><path d="M544.81,201.9a0.94,0.94,0,0,0-.46-0.46,1.53,1.53,0,0,0-.64-0.13,1.67,1.67,0,0,0-.45.06,1.26,1.26,0,0,0-.39.18,0.88,0.88,0,0,0-.27.31,0.92,0.92,0,0,0-.1.44,0.72,0.72,0,0,0,.1.39,0.89,0.89,0,0,0,.23.26,1.07,1.07,0,0,0,.28.15l0.23,0.07,0.45,0.1a1.6,1.6,0,0,1,.44.17,0.38,0.38,0,0,1,.18.35,0.44,0.44,0,0,1-.07.24l-0.17.17a0.81,0.81,0,0,1-.25.1,1.28,1.28,0,0,1-.28,0,0.94,0.94,0,0,1-.51-0.13,1.1,1.1,0,0,1-.35-0.36l-0.4.27a1.29,1.29,0,0,0,.56.49,1.73,1.73,0,0,0,.7.14,2,2,0,0,0,.47-0.06,1.21,1.21,0,0,0,.41-0.18,0.89,0.89,0,0,0,.4-0.77,0.8,0.8,0,0,0-.23-0.58,1.11,1.11,0,0,0-.57-0.31l-0.47-.11a1.59,1.59,0,0,1-.48-0.18,0.37,0.37,0,0,1-.16-0.34l0.06-.22,0.16-.15,0.22-.09,0.24,0a0.74,0.74,0,0,1,.43.12,0.86,0.86,0,0,1,.28.32Zm-3.16-2.52h-0.46v2.56h0a1.2,1.2,0,0,0-.27-0.29,1.65,1.65,0,0,0-.32-0.2,1.55,1.55,0,0,0-.35-0.11,1.8,1.8,0,0,0-.34,0,1.85,1.85,0,0,0-.7.13,1.65,1.65,0,0,0-.55.36,1.67,1.67,0,0,0-.36.55,1.89,1.89,0,0,0,0,1.37,1.67,1.67,0,0,0,.36.55,1.65,1.65,0,0,0,.55.36,1.85,1.85,0,0,0,.7.13,1.76,1.76,0,0,0,.34,0,1.55,1.55,0,0,0,.35-0.11,1.65,1.65,0,0,0,.32-0.2,1.2,1.2,0,0,0,.27-0.29h0v0.55h0.46v-5.29Zm-2.9,3.14a1.23,1.23,0,0,1,.25-0.41,1.16,1.16,0,0,1,.39-0.28,1.25,1.25,0,0,1,.51-0.1,1.33,1.33,0,0,1,.52.1,1.28,1.28,0,0,1,.42.28,1.26,1.26,0,0,1,.27.41,1.39,1.39,0,0,1,0,1,1.26,1.26,0,0,1-.27.41,1.28,1.28,0,0,1-.42.28,1.33,1.33,0,0,1-.52.1,1.25,1.25,0,0,1-.51-0.1A1.16,1.16,0,0,1,539,204a1.23,1.23,0,0,1-.25-0.41A1.55,1.55,0,0,1,538.75,202.52Zm-2.52,2.15h0.46v-1.85a1.15,1.15,0,0,1,.06-0.35,1.09,1.09,0,0,1,.19-0.34,1,1,0,0,1,.32-0.26,1,1,0,0,1,.46-0.1,0.77,0.77,0,0,1,.27,0l0.09-.46a1.24,1.24,0,0,0-.34,0,1.17,1.17,0,0,0-.39.06,1.07,1.07,0,0,0-.3.16l-0.22.22-0.14.26h0v-0.61h-0.46q0,0.36,0,.58c0,0.15,0,.3,0,0.44v2.25Zm-1.81-2-0.65,0a2.55,2.55,0,0,0-.67.14,1.25,1.25,0,0,0-.52.34,0.9,0.9,0,0,0-.21.63,0.87,0.87,0,0,0,.09.42,0.91,0.91,0,0,0,.25.3,1.05,1.05,0,0,0,.36.18,1.49,1.49,0,0,0,.42.06,1.46,1.46,0,0,0,.68-0.14,1.25,1.25,0,0,0,.48-0.47h0c0,0.09,0,.18,0,0.27s0,0.18,0,.26h0.45c0-.09,0-0.2,0-0.34s0-.27,0-0.4v-1.46A1.25,1.25,0,0,0,535,202a1.06,1.06,0,0,0-.26-0.36,1,1,0,0,0-.38-0.21,1.51,1.51,0,0,0-.46-0.07,1.85,1.85,0,0,0-1.39.48l0.28,0.33a1.45,1.45,0,0,1,1-.38,0.75,0.75,0,0,1,.84.85v0.08h-0.23Zm0.23,0.38v0.24a1.4,1.4,0,0,1-.06.41,0.89,0.89,0,0,1-.5.56,1.05,1.05,0,0,1-.44.08,1.22,1.22,0,0,1-.28,0,0.75,0.75,0,0,1-.25-0.1L533,204a0.55,0.55,0,0,1-.07-0.28,0.47,0.47,0,0,1,.17-0.39,1.11,1.11,0,0,1,.41-0.21,2.53,2.53,0,0,1,.5-0.08l0.44,0h0.24Zm-2.71-1.16a1.55,1.55,0,0,0-.55-0.42,1.65,1.65,0,0,0-.64-0.14,1.83,1.83,0,0,0-.72.12,1.6,1.6,0,0,0-.55.36,1.53,1.53,0,0,0-.35.55,2.05,2.05,0,0,0,0,1.38,1.53,1.53,0,0,0,.35.55,1.6,1.6,0,0,0,.55.36,1.83,1.83,0,0,0,.72.12,1.66,1.66,0,0,0,.64-0.14,1.55,1.55,0,0,0,.55-0.42l-0.38-.29a1,1,0,0,1-.33.31,0.94,0.94,0,0,1-.49.13,1.21,1.21,0,0,1-.51-0.09,1.13,1.13,0,0,1-.39-0.27,1.18,1.18,0,0,1-.25-0.42,1.66,1.66,0,0,1,0-1,1.19,1.19,0,0,1,.25-0.42,1.14,1.14,0,0,1,.39-0.27,1.21,1.21,0,0,1,.51-0.09,0.94,0.94,0,0,1,.49.13,1,1,0,0,1,.33.31Zm-3.6,0a0.94,0.94,0,0,0-.46-0.46,1.53,1.53,0,0,0-.64-0.13,1.67,1.67,0,0,0-.45.06,1.26,1.26,0,0,0-.39.18,0.88,0.88,0,0,0-.27.31,0.92,0.92,0,0,0-.1.44,0.72,0.72,0,0,0,.1.39,0.89,0.89,0,0,0,.23.26,1.07,1.07,0,0,0,.28.15l0.23,0.07,0.45,0.1a1.6,1.6,0,0,1,.44.17,0.38,0.38,0,0,1,.18.35,0.44,0.44,0,0,1-.07.24l-0.17.17a0.81,0.81,0,0,1-.25.1,1.28,1.28,0,0,1-.28,0,0.94,0.94,0,0,1-.51-0.13,1.1,1.1,0,0,1-.35-0.36l-0.4.27a1.29,1.29,0,0,0,.56.49,1.73,1.73,0,0,0,.7.14,2,2,0,0,0,.47-0.06,1.21,1.21,0,0,0,.41-0.18,0.89,0.89,0,0,0,.4-0.77,0.8,0.8,0,0,0-.23-0.58,1.11,1.11,0,0,0-.57-0.31l-0.47-.11a1.59,1.59,0,0,1-.48-0.18,0.37,0.37,0,0,1-.16-0.34l0.06-.22,0.16-.15,0.22-.09,0.24,0a0.74,0.74,0,0,1,.43.12,0.86,0.86,0,0,1,.28.32Zm-3.26-.5h-0.46v3.28h0.46v-3.28Zm0-1.5-0.23-.09-0.23.09a0.33,0.33,0,0,0,0,.48l0.23,0.09,0.23-.09A0.33,0.33,0,0,0,525.09,199.89Zm-5.66,4.78h1.65a3,3,0,0,0,.93-0.15,2.57,2.57,0,0,0,.84-0.47,2.44,2.44,0,0,0,0-3.72,2.57,2.57,0,0,0-.84-0.47,2.93,2.93,0,0,0-.93-0.15h-1.65v5Zm0.5-4.49h1a2.56,2.56,0,0,1,1,.17,2,2,0,0,1,.69.45,1.81,1.81,0,0,1,.41.64,2.16,2.16,0,0,1,0,1.49,1.81,1.81,0,0,1-.41.64,2,2,0,0,1-.69.46,2.57,2.57,0,0,1-1,.17h-1v-4Z" transform="translate(-193.23 -181.25)" fill="#58595b"/><line x1="338.75" y1="25.64" x2="338.75" y2="39.57" fill="none" stroke="#58595b" stroke-miterlimit="10" stroke-width="0.25"/><path d="M576.49,297H576v5.29h0.46V297Zm-1.68,0h-0.46v5.29h0.46V297Zm-2.33,3.28-0.65,0a2.55,2.55,0,0,0-.67.14,1.25,1.25,0,0,0-.52.34,0.9,0.9,0,0,0-.21.63,0.87,0.87,0,0,0,.09.42,0.91,0.91,0,0,0,.25.3,1.05,1.05,0,0,0,.36.18,1.49,1.49,0,0,0,.42.06,1.46,1.46,0,0,0,.68-0.14,1.25,1.25,0,0,0,.48-0.47h0c0,0.09,0,.18,0,0.27s0,0.18,0,.26h0.45c0-.09,0-0.2,0-0.34s0-.27,0-0.4v-1.46a1.25,1.25,0,0,0-.1-0.52,1.06,1.06,0,0,0-.26-0.36,1,1,0,0,0-.38-0.21,1.51,1.51,0,0,0-.46-0.07,1.85,1.85,0,0,0-1.39.48l0.28,0.33a1.45,1.45,0,0,1,1-.38,0.75,0.75,0,0,1,.84.85v0.08h-0.23Zm0.23,0.38v0.24a1.4,1.4,0,0,1-.06.41,0.89,0.89,0,0,1-.5.56,1.05,1.05,0,0,1-.44.08,1.22,1.22,0,0,1-.28,0,0.75,0.75,0,0,1-.25-0.1L571,301.6a0.55,0.55,0,0,1-.07-0.28,0.47,0.47,0,0,1,.17-0.39,1.11,1.11,0,0,1,.41-0.21,2.53,2.53,0,0,1,.5-0.08l0.44,0h0.24Zm-8.06,1.63h0.46v-1.68a1.54,1.54,0,0,1,.13-0.7,1.11,1.11,0,0,1,.29-0.38,0.74,0.74,0,0,1,.31-0.15l0.19,0a0.72,0.72,0,0,1,.65.27,1.39,1.39,0,0,1,.17.76v1.91h0.46v-1.74a2,2,0,0,1,0-.44,1.2,1.2,0,0,1,.16-0.38,0.82,0.82,0,0,1,.28-0.27,0.85,0.85,0,0,1,.43-0.1,0.72,0.72,0,0,1,.65.27,1.39,1.39,0,0,1,.17.76v1.91h0.46v-2.08a1.36,1.36,0,0,0-.3-0.95,1.19,1.19,0,0,0-.93-0.33,1.22,1.22,0,0,0-.63.18,1.08,1.08,0,0,0-.44.5,1.1,1.1,0,0,0-.21-0.34,1,1,0,0,0-.26-0.21,1,1,0,0,0-.29-0.1l-0.28,0a1.32,1.32,0,0,0-.59.15,1.08,1.08,0,0,0-.46.43h0V299h-0.5c0,0.12,0,.24,0,0.36s0,0.24,0,.36v2.55Zm-0.94-4.48a1.65,1.65,0,0,0-.64-0.47,2.1,2.1,0,0,0-.76-0.13,2.08,2.08,0,0,0-.59.08,1.56,1.56,0,0,0-.51.26,1.29,1.29,0,0,0-.36.44,1.35,1.35,0,0,0-.14.62,1.32,1.32,0,0,0,.11.57,1.11,1.11,0,0,0,.29.38,1.61,1.61,0,0,0,.41.25L562,300l0.47,0.15a1.82,1.82,0,0,1,.41.19,0.94,0.94,0,0,1,.29.29,0.79,0.79,0,0,1,.11.43,0.75,0.75,0,0,1-.1.38,1,1,0,0,1-.25.28,1.09,1.09,0,0,1-.34.17,1.25,1.25,0,0,1-.38.06,1.33,1.33,0,0,1-.68-0.16,1.2,1.2,0,0,1-.45-0.44l-0.46.33a1.65,1.65,0,0,0,.7.56,2.21,2.21,0,0,0,.86.17,1.81,1.81,0,0,0,.58-0.1,1.75,1.75,0,0,0,.53-0.28,1.4,1.4,0,0,0,.38-0.45,1.27,1.27,0,0,0,.14-0.61,1.18,1.18,0,0,0-.19-0.71,1.46,1.46,0,0,0-.47-0.42,2.81,2.81,0,0,0-.61-0.25,5.14,5.14,0,0,1-.61-0.21,1.49,1.49,0,0,1-.47-0.3,0.7,0.7,0,0,1-.19-0.52,0.85,0.85,0,0,1,.09-0.4,0.81,0.81,0,0,1,.24-0.28,1,1,0,0,1,.34-0.16,1.43,1.43,0,0,1,.38-0.05,1.09,1.09,0,0,1,1,.48Z" transform="translate(-193.23 -181.25)" fill="#58595b"/><path d="M575.47,307.75v-0.21a1.88,1.88,0,0,0-.1-0.63,1.52,1.52,0,0,0-.3-0.52,1.48,1.48,0,0,0-.49-0.35,1.6,1.6,0,0,0-.67-0.13,1.62,1.62,0,0,0-1.18.49,1.66,1.66,0,0,0-.35.55,1.83,1.83,0,0,0-.13.69,1.78,1.78,0,0,0,.13.69,1.71,1.71,0,0,0,.35.55,1.58,1.58,0,0,0,.54.36,1.74,1.74,0,0,0,.68.13,1.81,1.81,0,0,0,.76-0.16,1.76,1.76,0,0,0,.65-0.53l-0.36-.29a1.29,1.29,0,0,1-.41.4,1.17,1.17,0,0,1-.64.17,1.13,1.13,0,0,1-.46-0.09,1.21,1.21,0,0,1-.63-0.62,1.4,1.4,0,0,1-.12-0.46h2.73Zm-2.72-.38a0.86,0.86,0,0,1,.09-0.39,1.16,1.16,0,0,1,.25-0.34,1.23,1.23,0,0,1,.37-0.23,1.13,1.13,0,0,1,.43-0.09,1,1,0,0,1,1.06,1h-2.21Zm-1.45-3.4h-0.46v5.29h0.46V304ZM569,307.25l-0.65,0a2.55,2.55,0,0,0-.67.14,1.25,1.25,0,0,0-.52.34,0.9,0.9,0,0,0-.21.63,0.87,0.87,0,0,0,.09.42,0.91,0.91,0,0,0,.25.3,1.05,1.05,0,0,0,.36.18,1.49,1.49,0,0,0,.42.06,1.46,1.46,0,0,0,.68-0.14,1.25,1.25,0,0,0,.48-0.47h0c0,0.09,0,.18,0,0.27s0,0.18,0,.26h0.45c0-.09,0-0.2,0-0.34s0-.27,0-0.4v-1.46a1.25,1.25,0,0,0-.1-0.52,1.06,1.06,0,0,0-.26-0.36,1,1,0,0,0-.38-0.21,1.51,1.51,0,0,0-.46-0.07,1.85,1.85,0,0,0-1.39.48l0.28,0.33a1.45,1.45,0,0,1,1-.38,0.75,0.75,0,0,1,.84.85v0.08H569Zm0.23,0.38v0.24a1.4,1.4,0,0,1-.06.41,0.89,0.89,0,0,1-.5.56,1.05,1.05,0,0,1-.44.08,1.22,1.22,0,0,1-.28,0,0.75,0.75,0,0,1-.25-0.1l-0.18-.19a0.55,0.55,0,0,1-.07-0.28,0.47,0.47,0,0,1,.17-0.39,1.11,1.11,0,0,1,.41-0.21,2.53,2.53,0,0,1,.5-0.08l0.44,0h0.24Zm-2.71-1.16a1.55,1.55,0,0,0-.55-0.42,1.65,1.65,0,0,0-.64-0.14,1.83,1.83,0,0,0-.72.12,1.6,1.6,0,0,0-.55.36,1.53,1.53,0,0,0-.35.55,2.05,2.05,0,0,0,0,1.38,1.53,1.53,0,0,0,.35.55,1.6,1.6,0,0,0,.55.36,1.83,1.83,0,0,0,.72.12,1.66,1.66,0,0,0,.64-0.14,1.55,1.55,0,0,0,.55-0.42l-0.38-.29a1,1,0,0,1-.33.31,0.94,0.94,0,0,1-.49.13,1.21,1.21,0,0,1-.51-0.09,1.13,1.13,0,0,1-.39-0.27,1.18,1.18,0,0,1-.25-0.42,1.66,1.66,0,0,1,0-1,1.19,1.19,0,0,1,.25-0.42,1.14,1.14,0,0,1,.39-0.27,1.21,1.21,0,0,1,.51-0.09,0.94,0.94,0,0,1,.49.13,1,1,0,0,1,.33.31Zm-3.6,0a0.94,0.94,0,0,0-.46-0.46,1.53,1.53,0,0,0-.64-0.13,1.67,1.67,0,0,0-.45.06,1.26,1.26,0,0,0-.39.18,0.88,0.88,0,0,0-.27.31,0.92,0.92,0,0,0-.1.44,0.72,0.72,0,0,0,.1.39,0.89,0.89,0,0,0,.23.26,1.07,1.07,0,0,0,.28.15l0.23,0.07,0.45,0.1a1.6,1.6,0,0,1,.44.17,0.38,0.38,0,0,1,.18.35,0.44,0.44,0,0,1-.07.24l-0.17.17a0.81,0.81,0,0,1-.25.1,1.28,1.28,0,0,1-.28,0,0.94,0.94,0,0,1-.51-0.13,1.1,1.1,0,0,1-.35-0.36l-0.4.27a1.29,1.29,0,0,0,.56.49,1.73,1.73,0,0,0,.7.14,2,2,0,0,0,.47-0.06,1.21,1.21,0,0,0,.41-0.18,0.89,0.89,0,0,0,.4-0.77,0.8,0.8,0,0,0-.23-0.58,1.11,1.11,0,0,0-.57-0.31l-0.47-.11a1.59,1.59,0,0,1-.48-0.18,0.37,0.37,0,0,1-.16-0.34l0.06-.22,0.16-.15,0.22-.09,0.24,0a0.74,0.74,0,0,1,.43.12,0.86,0.86,0,0,1,.28.32Z" transform="translate(-193.23 -181.25)" fill="#58595b"/><path d="M553.18,292.46h2c1.07,0,2,1.35,2,3v15.89c0,1.65-.88,3-2,3h-2" transform="translate(-193.23 -181.25)" fill="none" stroke="#58595b" stroke-miterlimit="10" stroke-width="0.5"/><path d="M577.41,252.38v-0.21a1.88,1.88,0,0,0-.1-0.63A1.52,1.52,0,0,0,577,251a1.48,1.48,0,0,0-.49-0.35,1.6,1.6,0,0,0-.67-0.13,1.62,1.62,0,0,0-1.18.49,1.66,1.66,0,0,0-.35.55,1.83,1.83,0,0,0-.13.69,1.78,1.78,0,0,0,.13.69,1.71,1.71,0,0,0,.35.55,1.58,1.58,0,0,0,.54.36,1.74,1.74,0,0,0,.68.13,1.81,1.81,0,0,0,.76-0.16,1.76,1.76,0,0,0,.65-0.53l-0.36-.29a1.29,1.29,0,0,1-.41.4,1.17,1.17,0,0,1-.64.17,1.13,1.13,0,0,1-.46-0.09,1.21,1.21,0,0,1-.63-0.62,1.4,1.4,0,0,1-.12-0.46h2.73ZM574.7,252a0.86,0.86,0,0,1,.09-0.39,1.16,1.16,0,0,1,.25-0.34,1.23,1.23,0,0,1,.37-0.23,1.13,1.13,0,0,1,.43-0.09,1,1,0,0,1,1.06,1H574.7Zm-4.7,2.91a2,2,0,0,0,.7.5,2.24,2.24,0,0,0,.88.16,2,2,0,0,0,.9-0.17A1.49,1.49,0,0,0,573,255a1.41,1.41,0,0,0,.26-0.55,2.66,2.66,0,0,0,.07-0.57v-3.25h-0.46v0.55h0a1.51,1.51,0,0,0-.63-0.5,1.45,1.45,0,0,0-.33-0.1l-0.31,0a1.69,1.69,0,0,0-.67.13,1.56,1.56,0,0,0-.53.36,1.71,1.71,0,0,0-.35.54,1.74,1.74,0,0,0-.13.67,1.66,1.66,0,0,0,.13.67,1.59,1.59,0,0,0,.36.53,1.7,1.7,0,0,0,.54.35,1.76,1.76,0,0,0,.67.13,1.68,1.68,0,0,0,.68-0.14,1.26,1.26,0,0,0,.55-0.48h0v0.59a1.84,1.84,0,0,1-.07.5,1.07,1.07,0,0,1-.22.41,1,1,0,0,1-.4.28,1.56,1.56,0,0,1-.59.1,1.59,1.59,0,0,1-.72-0.16,1.49,1.49,0,0,1-.53-0.44Zm0.52-3.19a1.28,1.28,0,0,1,.26-0.4,1.25,1.25,0,0,1,.38-0.27,1.13,1.13,0,0,1,.48-0.1,1.27,1.27,0,0,1,.52.1,1.18,1.18,0,0,1,.39.27,1.16,1.16,0,0,1,.25.4,1.4,1.4,0,0,1,.08.49,1.28,1.28,0,0,1-.09.52,1.12,1.12,0,0,1-.27.4,1.29,1.29,0,0,1-.88.35,1.13,1.13,0,0,1-.48-0.1,1.25,1.25,0,0,1-.38-0.27,1.28,1.28,0,0,1-.26-0.4A1.3,1.3,0,0,1,570.51,251.73Zm-2.58,2.17h0.46V252a1.15,1.15,0,0,1,.06-0.35,1.09,1.09,0,0,1,.19-0.34,1,1,0,0,1,.32-0.26,1,1,0,0,1,.46-0.1,0.77,0.77,0,0,1,.27,0l0.09-.46a1.24,1.24,0,0,0-.34,0,1.17,1.17,0,0,0-.39.06,1.07,1.07,0,0,0-.3.16l-0.22.22-0.14.26h0v-0.61h-0.46q0,0.36,0,.58c0,0.15,0,.3,0,0.44v2.25Zm-1.81-2-0.65,0a2.55,2.55,0,0,0-.67.14,1.25,1.25,0,0,0-.52.34,0.9,0.9,0,0,0-.21.63,0.87,0.87,0,0,0,.09.42,0.91,0.91,0,0,0,.25.3,1.05,1.05,0,0,0,.36.18,1.49,1.49,0,0,0,.42.06,1.46,1.46,0,0,0,.68-0.14,1.25,1.25,0,0,0,.48-0.47h0c0,0.09,0,.18,0,0.27s0,0.18,0,.26h0.45c0-.09,0-0.2,0-0.34s0-.27,0-0.4V251.7a1.25,1.25,0,0,0-.1-0.52,1.06,1.06,0,0,0-.26-0.36,1,1,0,0,0-.38-0.21,1.51,1.51,0,0,0-.46-0.07,1.85,1.85,0,0,0-1.39.48l0.28,0.33a1.45,1.45,0,0,1,1-.38,0.75,0.75,0,0,1,.84.85v0.08h-0.23Zm0.23,0.38v0.24a1.4,1.4,0,0,1-.06.41,0.89,0.89,0,0,1-.5.56,1.05,1.05,0,0,1-.44.08,1.22,1.22,0,0,1-.28,0,0.75,0.75,0,0,1-.25-0.1l-0.18-.19a0.55,0.55,0,0,1-.07-0.28,0.47,0.47,0,0,1,.17-0.39,1.11,1.11,0,0,1,.41-0.21,2.53,2.53,0,0,1,.5-0.08l0.44,0h0.24Zm-4.93-3.33h-0.5v5h2.81v-0.46h-2.31v-4.49Z" transform="translate(-193.23 -181.25)" fill="#58595b"/><path d="M575.47,259.38v-0.21a1.88,1.88,0,0,0-.1-0.63,1.52,1.52,0,0,0-.3-0.52,1.48,1.48,0,0,0-.49-0.35,1.6,1.6,0,0,0-.67-0.13,1.62,1.62,0,0,0-1.18.49,1.66,1.66,0,0,0-.35.55,1.83,1.83,0,0,0-.13.69,1.78,1.78,0,0,0,.13.69,1.71,1.71,0,0,0,.35.55,1.58,1.58,0,0,0,.54.36,1.74,1.74,0,0,0,.68.13,1.81,1.81,0,0,0,.76-0.16,1.76,1.76,0,0,0,.65-0.53L575,260a1.29,1.29,0,0,1-.41.4,1.17,1.17,0,0,1-.64.17,1.13,1.13,0,0,1-.46-0.09,1.21,1.21,0,0,1-.63-0.62,1.4,1.4,0,0,1-.12-0.46h2.73Zm-2.72-.38a0.86,0.86,0,0,1,.09-0.39,1.16,1.16,0,0,1,.25-0.34,1.23,1.23,0,0,1,.37-0.23,1.13,1.13,0,0,1,.43-0.09,1,1,0,0,1,1.06,1h-2.21Zm-1.45-3.4h-0.46v5.29h0.46V255.6ZM569,258.89l-0.65,0a2.55,2.55,0,0,0-.67.14,1.25,1.25,0,0,0-.52.34,0.9,0.9,0,0,0-.21.63,0.87,0.87,0,0,0,.09.42,0.91,0.91,0,0,0,.25.3,1.05,1.05,0,0,0,.36.18,1.49,1.49,0,0,0,.42.06,1.46,1.46,0,0,0,.68-0.14,1.25,1.25,0,0,0,.48-0.47h0c0,0.09,0,.18,0,0.27s0,0.18,0,.26h0.45c0-.09,0-0.2,0-0.34s0-.27,0-0.4V258.7a1.25,1.25,0,0,0-.1-0.52,1.06,1.06,0,0,0-.26-0.36,1,1,0,0,0-.38-0.21,1.51,1.51,0,0,0-.46-0.07,1.85,1.85,0,0,0-1.39.48l0.28,0.33a1.45,1.45,0,0,1,1-.38,0.75,0.75,0,0,1,.84.85v0.08H569Zm0.23,0.38v0.24a1.4,1.4,0,0,1-.06.41,0.89,0.89,0,0,1-.5.56,1.05,1.05,0,0,1-.44.08,1.22,1.22,0,0,1-.28,0,0.75,0.75,0,0,1-.25-0.1l-0.18-.19a0.55,0.55,0,0,1-.07-0.28,0.47,0.47,0,0,1,.17-0.39,1.11,1.11,0,0,1,.41-0.21,2.53,2.53,0,0,1,.5-0.08l0.44,0h0.24Zm-2.71-1.16a1.55,1.55,0,0,0-.55-0.42,1.65,1.65,0,0,0-.64-0.14,1.83,1.83,0,0,0-.72.12,1.6,1.6,0,0,0-.55.36,1.53,1.53,0,0,0-.35.55,2.05,2.05,0,0,0,0,1.38,1.53,1.53,0,0,0,.35.55,1.6,1.6,0,0,0,.55.36,1.83,1.83,0,0,0,.72.12,1.66,1.66,0,0,0,.64-0.14,1.55,1.55,0,0,0,.55-0.42l-0.38-.29a1,1,0,0,1-.33.31,0.94,0.94,0,0,1-.49.13,1.21,1.21,0,0,1-.51-0.09,1.13,1.13,0,0,1-.39-0.27,1.18,1.18,0,0,1-.25-0.42,1.66,1.66,0,0,1,0-1,1.19,1.19,0,0,1,.25-0.42,1.14,1.14,0,0,1,.39-0.27,1.21,1.21,0,0,1,.51-0.09,0.94,0.94,0,0,1,.49.13,1,1,0,0,1,.33.31Zm-3.6,0a0.94,0.94,0,0,0-.46-0.46,1.53,1.53,0,0,0-.64-0.13,1.67,1.67,0,0,0-.45.06,1.26,1.26,0,0,0-.39.18,0.88,0.88,0,0,0-.27.31,0.92,0.92,0,0,0-.1.44,0.72,0.72,0,0,0,.1.39,0.89,0.89,0,0,0,.23.26,1.07,1.07,0,0,0,.28.15l0.23,0.07,0.45,0.1a1.6,1.6,0,0,1,.44.17,0.38,0.38,0,0,1,.18.35,0.44,0.44,0,0,1-.07.24l-0.17.17a0.81,0.81,0,0,1-.25.1,1.28,1.28,0,0,1-.28,0,0.94,0.94,0,0,1-.51-0.13,1.1,1.1,0,0,1-.35-0.36l-0.4.27a1.29,1.29,0,0,0,.56.49,1.73,1.73,0,0,0,.7.14,2,2,0,0,0,.47-0.06,1.21,1.21,0,0,0,.41-0.18A0.89,0.89,0,0,0,563,260a0.8,0.8,0,0,0-.23-0.58,1.11,1.11,0,0,0-.57-0.31l-0.47-.11a1.59,1.59,0,0,1-.48-0.18,0.37,0.37,0,0,1-.16-0.34l0.06-.22,0.16-.15,0.22-.09,0.24,0a0.74,0.74,0,0,1,.43.12,0.86,0.86,0,0,1,.28.32Z" transform="translate(-193.23 -181.25)" fill="#58595b"/><path d="M553.18,219.18h2c1.07,0,2,1.35,2,3v65.73c0,1.65-.88,3-2,3h-2" transform="translate(-193.23 -181.25)" fill="none" stroke="#58595b" stroke-miterlimit="10" stroke-width="0.5"/></svg>