<svg id="Layer_1" data-name="Layer 1" xmlns="http://www.w3.org/2000/svg" viewBox="0 0 133.81 147.21"><title>figure14b</title><path d="M282,257.13l-14.89-64.48A67.69,67.69,0,0,1,282,191v66.17Z" transform="translate(-215.87 -176.09)" fill="#939598"/><path d="M282,257.13L249,199.82a63.18,63.18,0,0,1,18.2-7.17Z" transform="translate(-215.87 -176.09)" fill="#58595b"/><path d="M282,257.13V191a66.17,66.17,0,1,1-66.17,66.17c0-24.71,11.69-45,33.09-57.31Z" transform="translate(-215.87 -176.09)" fill="#cd1349"/><path d="M305.6,284.32a2,2,0,0,0,.7.5,2.24,2.24,0,0,0,.88.16,2,2,0,0,0,.9-0.17,1.49,1.49,0,0,0,.54-0.42,1.41,1.41,0,0,0,.26-0.55,2.66,2.66,0,0,0,.07-0.57V280h-0.46v0.55h0a1.51,1.51,0,0,0-.63-0.5,1.45,1.45,0,0,0-.33-0.1l-0.31,0a1.69,1.69,0,0,0-.67.13,1.56,1.56,0,0,0-.53.36,1.71,1.71,0,0,0-.35.54,1.74,1.74,0,0,0-.13.67,1.66,1.66,0,0,0,.13.67,1.59,1.59,0,0,0,.36.53,1.7,1.7,0,0,0,.54.35,1.76,1.76,0,0,0,.67.13,1.68,1.68,0,0,0,.68-0.14,1.26,1.26,0,0,0,.55-0.48h0v0.59a1.84,1.84,0,0,1-.07.5,1.07,1.07,0,0,1-.22.41,1,1,0,0,1-.4.28,1.56,1.56,0,0,1-.59.1,1.59,1.59,0,0,1-.72-0.16,1.49,1.49,0,0,1-.53-0.44Zm0.52-3.19a1.28,1.28,0,0,1,.26-0.4,1.25,1.25,0,0,1,.38-0.27,1.13,1.13,0,0,1,.48-0.1,1.27,1.27,0,0,1,.52.1,1.18,1.18,0,0,1,.39.27,1.16,1.16,0,0,1,.25.4,1.4,1.4,0,0,1,.08.49,1.28,1.28,0,0,1-.09.52,1.12,1.12,0,0,1-.27.4,1.29,1.29,0,0,1-.88.35,1.13,1.13,0,0,1-.48-0.1,1.25,1.25,0,0,1-.38-0.27,1.28,1.28,0,0,1-.26-0.4A1.3,1.3,0,0,1,306.12,281.13ZM301.76,280c0,0.12,0,.25,0,0.38s0,0.25,0,.34v2.56h0.46v-1.68a1.45,1.45,0,0,1,.14-0.7,1.1,1.1,0,0,1,.32-0.38,0.86,0.86,0,0,1,.34-0.15l0.2,0a0.77,0.77,0,0,1,.7.29,1.54,1.54,0,0,1,.19.84v1.81h0.46v-2.08a1.36,1.36,0,0,0-.3-0.95,1.19,1.19,0,0,0-.93-0.33,1.21,1.21,0,0,0-.33,0,1.43,1.43,0,0,0-.31.13,1.27,1.27,0,0,0-.27.19l-0.2.25h0v-0.26l0-.26h-0.48Zm-1.08,0h-0.46v3.28h0.46V280Zm0-1.5-0.23-.09-0.23.09a0.33,0.33,0,0,0,0,.48l0.23,0.09,0.23-.09A0.33,0.33,0,0,0,300.68,278.52Zm-4.46,4.78h0.46v-1.68a1.45,1.45,0,0,1,.14-0.7,1.1,1.1,0,0,1,.32-0.38,0.86,0.86,0,0,1,.34-0.15l0.2,0a0.77,0.77,0,0,1,.7.29,1.54,1.54,0,0,1,.19.84v1.81H299v-2.08a1.36,1.36,0,0,0-.3-0.95,1.19,1.19,0,0,0-.93-0.33,1.21,1.21,0,0,0-.33,0,1.43,1.43,0,0,0-.31.13,1.27,1.27,0,0,0-.27.19l-0.2.25h0V278h-0.46v5.29Zm-0.83-2.77a0.94,0.94,0,0,0-.46-0.46,1.53,1.53,0,0,0-.64-0.13,1.67,1.67,0,0,0-.45.06,1.26,1.26,0,0,0-.39.18,0.88,0.88,0,0,0-.27.31,0.92,0.92,0,0,0-.1.44,0.72,0.72,0,0,0,.1.39,0.89,0.89,0,0,0,.23.26,1.07,1.07,0,0,0,.28.15l0.23,0.07,0.45,0.1a1.6,1.6,0,0,1,.44.17,0.38,0.38,0,0,1,.18.35,0.44,0.44,0,0,1-.07.24l-0.17.17a0.81,0.81,0,0,1-.25.1,1.28,1.28,0,0,1-.28,0,0.94,0.94,0,0,1-.51-0.13,1.1,1.1,0,0,1-.35-0.36l-0.4.27a1.29,1.29,0,0,0,.56.49,1.73,1.73,0,0,0,.7.14,2,2,0,0,0,.47-0.06,1.21,1.21,0,0,0,.41-0.18,0.89,0.89,0,0,0,.4-0.77,0.8,0.8,0,0,0-.23-0.58,1.11,1.11,0,0,0-.57-0.31l-0.47-.11a1.59,1.59,0,0,1-.48-0.18,0.37,0.37,0,0,1-.16-0.34l0.06-.22,0.16-.15,0.22-.09,0.24,0a0.74,0.74,0,0,1,.43.12,0.86,0.86,0,0,1,.28.32Zm-3.26-.5h-0.46v3.28h0.46V280Zm0-1.5-0.23-.09-0.23.09a0.33,0.33,0,0,0,0,.48l0.23,0.09,0.23-.09A0.33,0.33,0,0,0,292.13,278.52ZM291,280h-0.78v-0.84a2.33,2.33,0,0,1,0-.33,0.77,0.77,0,0,1,.08-0.27l0.18-.18a0.65,0.65,0,0,1,.31-0.06H291l0.17,0,0.08-.42-0.2,0h-0.2a1.14,1.14,0,0,0-.8.28,1.22,1.22,0,0,0-.3.93V280h-0.69v0.42h0.69v2.86h0.46v-2.86H291V280Zm-5.24,1.27-0.65,0a2.55,2.55,0,0,0-.67.14,1.25,1.25,0,0,0-.52.34,0.9,0.9,0,0,0-.21.63,0.87,0.87,0,0,0,.09.42,0.91,0.91,0,0,0,.25.3,1.05,1.05,0,0,0,.36.18,1.49,1.49,0,0,0,.42.06,1.46,1.46,0,0,0,.68-0.14,1.25,1.25,0,0,0,.48-0.47h0c0,0.09,0,.18,0,0.27s0,0.18,0,.26h0.45c0-.09,0-0.2,0-0.34s0-.27,0-0.4V281.1a1.25,1.25,0,0,0-.1-0.52,1.06,1.06,0,0,0-.26-0.36,1,1,0,0,0-.38-0.21,1.51,1.51,0,0,0-.46-0.07,1.85,1.85,0,0,0-1.39.48l0.28,0.33a1.45,1.45,0,0,1,1-.38,0.75,0.75,0,0,1,.84.85v0.08h-0.23Zm0.23,0.38v0.24a1.4,1.4,0,0,1-.06.41,0.89,0.89,0,0,1-.5.56,1.05,1.05,0,0,1-.44.08,1.22,1.22,0,0,1-.28,0,0.75,0.75,0,0,1-.25-0.1l-0.18-.19a0.55,0.55,0,0,1-.07-0.28,0.47,0.47,0,0,1,.17-0.39,1.11,1.11,0,0,1,.41-0.21,2.53,2.53,0,0,1,.5-0.08l0.44,0H286Zm-2.94.12v-0.21a1.88,1.88,0,0,0-.1-0.63,1.52,1.52,0,0,0-.3-0.52,1.48,1.48,0,0,0-.49-0.35,1.6,1.6,0,0,0-.67-0.13,1.62,1.62,0,0,0-1.18.49,1.66,1.66,0,0,0-.35.55,1.83,1.83,0,0,0-.13.69,1.78,1.78,0,0,0,.13.69,1.71,1.71,0,0,0,.35.55,1.58,1.58,0,0,0,.54.36,1.74,1.74,0,0,0,.68.13,1.81,1.81,0,0,0,.76-0.16,1.76,1.76,0,0,0,.65-0.53l-0.36-.29a1.29,1.29,0,0,1-.41.4,1.17,1.17,0,0,1-.64.17,1.13,1.13,0,0,1-.46-0.09,1.21,1.21,0,0,1-.63-0.62,1.4,1.4,0,0,1-.12-0.46h2.73Zm-2.72-.38a0.86,0.86,0,0,1,.09-0.39,1.16,1.16,0,0,1,.25-0.34,1.23,1.23,0,0,1,.37-0.23,1.13,1.13,0,0,1,.43-0.09,1,1,0,0,1,1.06,1h-2.21Zm-1.27-2.59a1.65,1.65,0,0,0-.64-0.47,2.1,2.1,0,0,0-.76-0.13,2.08,2.08,0,0,0-.59.08,1.56,1.56,0,0,0-.51.26,1.29,1.29,0,0,0-.36.44,1.35,1.35,0,0,0-.14.62,1.32,1.32,0,0,0,.11.57,1.11,1.11,0,0,0,.29.38,1.61,1.61,0,0,0,.41.25l0.47,0.17,0.47,0.15a1.82,1.82,0,0,1,.41.19,0.94,0.94,0,0,1,.29.29,0.79,0.79,0,0,1,.11.43,0.75,0.75,0,0,1-.1.38,1,1,0,0,1-.25.28,1.09,1.09,0,0,1-.34.17,1.25,1.25,0,0,1-.38.06,1.33,1.33,0,0,1-.68-0.16,1.2,1.2,0,0,1-.45-0.44l-0.46.33a1.65,1.65,0,0,0,.7.56,2.21,2.21,0,0,0,.86.17,1.81,1.81,0,0,0,.58-0.1,1.75,1.75,0,0,0,.53-0.28,1.4,1.4,0,0,0,.38-0.45,1.27,1.27,0,0,0,.14-0.61,1.18,1.18,0,0,0-.19-0.71,1.46,1.46,0,0,0-.47-0.42,2.81,2.81,0,0,0-.61-0.25,5.14,5.14,0,0,1-.61-0.21,1.49,1.49,0,0,1-.47-0.3,0.7,0.7,0,0,1-.19-0.52,0.85,0.85,0,0,1,.09-0.4,0.81,0.81,0,0,1,.24-0.28,1,1,0,0,1,.34-0.16,1.43,1.43,0,0,1,.38-0.05,1.09,1.09,0,0,1,1,.48Z" transform="translate(-215.87 -176.09)" fill="#fff"/><path d="M296.15,286a1.18,1.18,0,0,0-.26-0.39,1.26,1.26,0,0,0-.39-0.26,1.28,1.28,0,0,0-1,0,1.25,1.25,0,0,0-.39.26,1.18,1.18,0,0,0-.26.39,1.28,1.28,0,0,0,0,1,1.18,1.18,0,0,0,.26.39,1.25,1.25,0,0,0,.39.26,1.28,1.28,0,0,0,1,0,1.26,1.26,0,0,0,.39-0.26,1.18,1.18,0,0,0,.26-0.39A1.28,1.28,0,0,0,296.15,286Zm-0.39.8a0.85,0.85,0,0,1-.17.26,0.76,0.76,0,0,1-.25.17,0.86,0.86,0,0,1-.63,0,0.76,0.76,0,0,1-.25-0.17,0.85,0.85,0,0,1-.17-0.26,0.8,0.8,0,0,1,0-.64,0.85,0.85,0,0,1,.17-0.26,0.76,0.76,0,0,1,.25-0.17,0.86,0.86,0,0,1,.63,0,0.76,0.76,0,0,1,.25.17,0.85,0.85,0,0,1,.17.26A0.81,0.81,0,0,1,295.76,286.81Zm3.23,1.87a1.18,1.18,0,0,0-.26-0.39,1.26,1.26,0,0,0-.39-0.26,1.28,1.28,0,0,0-1,0,1.25,1.25,0,0,0-.39.26,1.18,1.18,0,0,0-.26.39,1.28,1.28,0,0,0,0,1,1.18,1.18,0,0,0,.26.39,1.24,1.24,0,0,0,.39.26,1.28,1.28,0,0,0,1,0,1.26,1.26,0,0,0,.39-0.26,1.18,1.18,0,0,0,.26-0.39A1.28,1.28,0,0,0,299,288.68Zm-0.39.81a0.85,0.85,0,0,1-.17.26,0.76,0.76,0,0,1-.25.17,0.86,0.86,0,0,1-.63,0,0.76,0.76,0,0,1-.25-0.17,0.85,0.85,0,0,1-.17-0.26,0.81,0.81,0,0,1,0-.64,0.85,0.85,0,0,1,.17-0.26,0.76,0.76,0,0,1,.25-0.17,0.87,0.87,0,0,1,.63,0,0.76,0.76,0,0,1,.25.17,0.85,0.85,0,0,1,.17.26A0.81,0.81,0,0,1,298.6,289.48Zm-0.41-4.17-0.36-.19-3.16,5.2,0.36,0.19Zm-5.07,4.52h-2.6l1.56-1.55,0.37-.37a3.07,3.07,0,0,0,.32-0.4,2.13,2.13,0,0,0,.23-0.45,1.5,1.5,0,0,0,.09-0.52,1.23,1.23,0,0,0-.12-0.56,1.17,1.17,0,0,0-.33-0.4,1.43,1.43,0,0,0-.48-0.24,2,2,0,0,0-.57-0.08,1.54,1.54,0,0,0-1,.31,1.39,1.39,0,0,0-.51.87l0.53,0.06a1,1,0,0,1,.34-0.57,1,1,0,0,1,.64-0.21,1.14,1.14,0,0,1,.37.06,1,1,0,0,1,.31.17,0.77,0.77,0,0,1,.21.27,0.87,0.87,0,0,1,.07.36,0.94,0.94,0,0,1-.06.32,1.42,1.42,0,0,1-.15.29,2.23,2.23,0,0,1-.2.27l-0.22.24-2,2v0.58h3.15v-0.46Zm-6.18.46h0.59l1.34-2.18a4.17,4.17,0,0,0,.3-0.61,2,2,0,0,0,.12-0.72,1.56,1.56,0,0,0-.12-0.62,1.41,1.41,0,0,0-.34-0.48,1.53,1.53,0,0,0-.51-0.32,1.91,1.91,0,0,0-1.29,0,1.54,1.54,0,0,0-.51.32,1.41,1.41,0,0,0-.34.48,1.7,1.7,0,0,0,0,1.24,1.45,1.45,0,0,0,.8.8,1.54,1.54,0,0,0,.6.12,1.78,1.78,0,0,0,.37,0,0.85,0.85,0,0,0,.32-0.13h0Zm1.77-3.07a1,1,0,0,1-.58.56,1.34,1.34,0,0,1-.9,0,1,1,0,0,1-.35-0.22,1,1,0,0,1-.23-0.34,1.2,1.2,0,0,1,0-.87,0.94,0.94,0,0,1,.23-0.34,1.07,1.07,0,0,1,.35-0.22,1.28,1.28,0,0,1,.9,0,1.07,1.07,0,0,1,.35.22,1,1,0,0,1,.23.34A1.22,1.22,0,0,1,288.71,287.23Z" transform="translate(-215.87 -176.09)" fill="#fff"/><path d="M257.72,185.32v-0.21a1.88,1.88,0,0,0-.1-0.63,1.52,1.52,0,0,0-.3-0.52,1.48,1.48,0,0,0-.49-0.35,1.6,1.6,0,0,0-.67-0.13A1.62,1.62,0,0,0,255,184a1.66,1.66,0,0,0-.35.55,1.83,1.83,0,0,0-.13.69,1.78,1.78,0,0,0,.13.69,1.71,1.71,0,0,0,.35.55,1.58,1.58,0,0,0,.54.36,1.74,1.74,0,0,0,.68.13,1.81,1.81,0,0,0,.76-0.16,1.76,1.76,0,0,0,.65-0.53l-0.36-.29a1.29,1.29,0,0,1-.41.4,1.17,1.17,0,0,1-.64.17,1.13,1.13,0,0,1-.46-0.09,1.21,1.21,0,0,1-.63-0.62,1.4,1.4,0,0,1-.12-0.46h2.73Zm-2.72-.38a0.86,0.86,0,0,1,.09-0.39,1.16,1.16,0,0,1,.25-0.34,1.23,1.23,0,0,1,.37-0.23,1.13,1.13,0,0,1,.43-0.09,1,1,0,0,1,1.06,1H255Zm-2.49,1.89H253V185a1.15,1.15,0,0,1,.06-0.35,1.09,1.09,0,0,1,.19-0.34,1,1,0,0,1,.32-0.26,1,1,0,0,1,.46-0.1,0.77,0.77,0,0,1,.27,0l0.09-.46a1.24,1.24,0,0,0-.34,0,1.17,1.17,0,0,0-.39.06,1.07,1.07,0,0,0-.3.16l-0.22.22-0.14.26h0v-0.61h-0.46q0,0.36,0,.58c0,0.15,0,.3,0,0.44v2.25Zm-1.1,0c0-.12,0-0.25,0-0.38s0-.25,0-0.34v-2.55h-0.46v1.68a1.45,1.45,0,0,1-.14.7,1.12,1.12,0,0,1-.32.38,0.86,0.86,0,0,1-.34.15l-0.2,0a1.09,1.09,0,0,1-.43-0.07,0.63,0.63,0,0,1-.27-0.22,0.92,0.92,0,0,1-.14-0.35,2.53,2.53,0,0,1,0-.48v-1.81h-0.46v2.08a1.37,1.37,0,0,0,.3.95,1.2,1.2,0,0,0,.93.33,1.21,1.21,0,0,0,.33,0,1.45,1.45,0,0,0,.31-0.13,1.29,1.29,0,0,0,.27-0.19l0.2-.25h0v0.26l0,0.26h0.48ZM248,183.56H247v-0.92h-0.46v0.92h-0.69V184h0.69V186a1.06,1.06,0,0,0,.08.44,0.72,0.72,0,0,0,.2.27,0.65,0.65,0,0,0,.26.13,1.17,1.17,0,0,0,.28,0,1.48,1.48,0,0,0,.62-0.12l0-.43-0.23.09-0.25,0-0.19,0-0.15-.09-0.1-.18a1,1,0,0,1,0-.3V184H248v-0.42Zm-2.81-2h-0.46v5.29h0.46v-5.29Zm-1.62,5.29c0-.12,0-0.25,0-0.38s0-.25,0-0.34v-2.55H243v1.68a1.45,1.45,0,0,1-.14.7,1.12,1.12,0,0,1-.32.38,0.86,0.86,0,0,1-.34.15l-0.2,0a1.09,1.09,0,0,1-.43-0.07,0.63,0.63,0,0,1-.27-0.22,0.92,0.92,0,0,1-.14-0.35,2.53,2.53,0,0,1,0-.48v-1.81h-0.46v2.08a1.37,1.37,0,0,0,.3.95,1.2,1.2,0,0,0,.93.33,1.21,1.21,0,0,0,.33,0,1.45,1.45,0,0,0,.31-0.13,1.29,1.29,0,0,0,.27-0.19l0.2-.25h0v0.26l0,0.26h0.48ZM240.08,184a1.55,1.55,0,0,0-.55-0.42,1.65,1.65,0,0,0-.64-0.14,1.83,1.83,0,0,0-.72.12,1.6,1.6,0,0,0-.55.36,1.53,1.53,0,0,0-.35.55,2.05,2.05,0,0,0,0,1.38,1.53,1.53,0,0,0,.35.55,1.6,1.6,0,0,0,.55.36,1.83,1.83,0,0,0,.72.12,1.66,1.66,0,0,0,.64-0.14,1.55,1.55,0,0,0,.55-0.42l-0.38-.29a1,1,0,0,1-.33.31,0.94,0.94,0,0,1-.49.13,1.21,1.21,0,0,1-.51-0.09,1.13,1.13,0,0,1-.39-0.27,1.18,1.18,0,0,1-.25-0.42,1.66,1.66,0,0,1,0-1,1.19,1.19,0,0,1,.25-0.42,1.14,1.14,0,0,1,.39-0.27,1.21,1.21,0,0,1,.51-0.09,0.94,0.94,0,0,1,.49.13,1,1,0,0,1,.33.31Zm-4.53.78-0.65,0a2.55,2.55,0,0,0-.67.14,1.25,1.25,0,0,0-.52.34,0.9,0.9,0,0,0-.21.63,0.87,0.87,0,0,0,.09.42,0.91,0.91,0,0,0,.25.3,1.05,1.05,0,0,0,.36.18,1.49,1.49,0,0,0,.42.06,1.46,1.46,0,0,0,.68-0.14,1.25,1.25,0,0,0,.48-0.47h0c0,0.09,0,.18,0,0.27s0,0.18,0,.26h0.45c0-.09,0-0.2,0-0.34s0-.27,0-0.4v-1.46a1.25,1.25,0,0,0-.1-0.52,1.06,1.06,0,0,0-.26-0.36,1,1,0,0,0-.38-0.21,1.51,1.51,0,0,0-.46-0.07,1.85,1.85,0,0,0-1.39.48l0.28,0.33a1.45,1.45,0,0,1,1-.38,0.75,0.75,0,0,1,.84.85v0.08h-0.23Zm0.23,0.38v0.24a1.4,1.4,0,0,1-.06.41,0.89,0.89,0,0,1-.5.56,1.05,1.05,0,0,1-.44.08,1.22,1.22,0,0,1-.28,0,0.75,0.75,0,0,1-.25-0.1l-0.18-.19a0.55,0.55,0,0,1-.07-0.28,0.47,0.47,0,0,1,.17-0.39,1.11,1.11,0,0,1,.41-0.21,2.53,2.53,0,0,1,.5-0.08l0.44,0h0.24Zm-3.15,1.63c0-.12,0-0.25,0-0.38s0-.25,0-0.34v-2.55h-0.46v1.68a1.45,1.45,0,0,1-.14.7,1.12,1.12,0,0,1-.32.38,0.86,0.86,0,0,1-.34.15l-0.2,0a1.09,1.09,0,0,1-.43-0.07,0.63,0.63,0,0,1-.27-0.22,0.92,0.92,0,0,1-.14-0.35,2.53,2.53,0,0,1,0-.48v-1.81h-0.46v2.08a1.37,1.37,0,0,0,.3.95,1.2,1.2,0,0,0,.93.33,1.21,1.21,0,0,0,.33,0,1.45,1.45,0,0,0,.31-0.13,1.29,1.29,0,0,0,.27-0.19l0.2-.25h0v0.26l0,0.26h0.48Zm-3.85-3.28h-0.46v0.55h0a1.2,1.2,0,0,0-.27-0.29,1.65,1.65,0,0,0-.32-0.2,1.55,1.55,0,0,0-.35-0.11,1.8,1.8,0,0,0-.34,0,1.85,1.85,0,0,0-.7.13,1.65,1.65,0,0,0-.55.36,1.67,1.67,0,0,0-.36.55,1.89,1.89,0,0,0,0,1.37,1.67,1.67,0,0,0,.36.55,1.65,1.65,0,0,0,.55.36,1.85,1.85,0,0,0,.7.13,1.76,1.76,0,0,0,.34,0,1.55,1.55,0,0,0,.35-0.11,1.65,1.65,0,0,0,.32-0.2,1.2,1.2,0,0,0,.27-0.29h0v2.56h0.46v-5.29Zm-2.9,1.13a1.23,1.23,0,0,1,.25-0.41,1.16,1.16,0,0,1,.39-0.28,1.25,1.25,0,0,1,.51-0.1,1.33,1.33,0,0,1,.52.1,1.28,1.28,0,0,1,.42.28,1.26,1.26,0,0,1,.27.41,1.39,1.39,0,0,1,0,1,1.26,1.26,0,0,1-.27.41,1.28,1.28,0,0,1-.42.28,1.33,1.33,0,0,1-.52.1,1.25,1.25,0,0,1-.51-0.1,1.16,1.16,0,0,1-.39-0.28,1.23,1.23,0,0,1-.25-0.41A1.55,1.55,0,0,1,225.88,184.69Zm-4.54.85h2.53l0.55,1.3H225l-2.16-5h-0.49l-2.16,5h0.59Zm1.27-3.07,1.07,2.6h-2.15Z" transform="translate(-215.87 -176.09)" fill="#58595b"/><path d="M254.86,189.54a1.18,1.18,0,0,0-.26-0.39,1.26,1.26,0,0,0-.39-0.26,1.28,1.28,0,0,0-1,0,1.25,1.25,0,0,0-.39.26,1.18,1.18,0,0,0-.26.39,1.28,1.28,0,0,0,0,1,1.18,1.18,0,0,0,.26.39,1.25,1.25,0,0,0,.39.26,1.28,1.28,0,0,0,1,0,1.26,1.26,0,0,0,.39-0.26,1.18,1.18,0,0,0,.26-0.39A1.28,1.28,0,0,0,254.86,189.54Zm-0.39.8a0.85,0.85,0,0,1-.17.26,0.76,0.76,0,0,1-.25.17,0.86,0.86,0,0,1-.63,0,0.76,0.76,0,0,1-.25-0.17,0.85,0.85,0,0,1-.17-0.26,0.8,0.8,0,0,1,0-.64,0.85,0.85,0,0,1,.17-0.26,0.76,0.76,0,0,1,.25-0.17,0.86,0.86,0,0,1,.63,0,0.76,0.76,0,0,1,.25.17,0.85,0.85,0,0,1,.17.26A0.81,0.81,0,0,1,254.47,190.34Zm3.23,1.87a1.18,1.18,0,0,0-.26-0.39,1.26,1.26,0,0,0-.39-0.26,1.28,1.28,0,0,0-1,0,1.25,1.25,0,0,0-.39.26,1.18,1.18,0,0,0-.26.39,1.28,1.28,0,0,0,0,1,1.18,1.18,0,0,0,.26.39,1.24,1.24,0,0,0,.39.26,1.28,1.28,0,0,0,1,0,1.26,1.26,0,0,0,.39-0.26,1.18,1.18,0,0,0,.26-0.39A1.28,1.28,0,0,0,257.7,192.21Zm-0.39.81a0.85,0.85,0,0,1-.17.26,0.76,0.76,0,0,1-.25.17,0.86,0.86,0,0,1-.63,0,0.76,0.76,0,0,1-.25-0.17,0.85,0.85,0,0,1-.17-0.26,0.81,0.81,0,0,1,0-.64,0.85,0.85,0,0,1,.17-0.26,0.76,0.76,0,0,1,.25-0.17,0.87,0.87,0,0,1,.63,0,0.76,0.76,0,0,1,.25.17,0.85,0.85,0,0,1,.17.26A0.81,0.81,0,0,1,257.31,193Zm-0.41-4.17-0.36-.19-3.16,5.2,0.36,0.19Zm-5.31,0h-2.53l0,2.57a2.53,2.53,0,0,1,.5-0.2,1.94,1.94,0,0,1,.53-0.07,1.39,1.39,0,0,1,.49.08,1.09,1.09,0,0,1,.38.24,1.13,1.13,0,0,1,.25.37,1.22,1.22,0,0,1,.09.48,1.09,1.09,0,0,1-.32.78,1.15,1.15,0,0,1-.35.23,1.1,1.1,0,0,1-.44.09,1,1,0,0,1-.58-0.17,1.14,1.14,0,0,1-.39-0.47l-0.5.22a1.46,1.46,0,0,0,.58.66,1.63,1.63,0,0,0,.85.22,1.8,1.8,0,0,0,.66-0.12,1.59,1.59,0,0,0,.53-0.33,1.51,1.51,0,0,0,.35-0.51,1.66,1.66,0,0,0,.13-0.65,1.7,1.7,0,0,0-.12-0.63,1.53,1.53,0,0,0-.32-0.5,1.44,1.44,0,0,0-.49-0.33,1.64,1.64,0,0,0-.64-0.12l-0.34,0a1.66,1.66,0,0,0-.33.09l0-1.49h2v-0.46Z" transform="translate(-215.87 -176.09)" fill="#58595b"/><path d="M346.35,182.4a2,2,0,0,0,.7.5,2.24,2.24,0,0,0,.88.16,2,2,0,0,0,.9-0.17,1.49,1.49,0,0,0,.54-0.42,1.41,1.41,0,0,0,.26-0.55,2.66,2.66,0,0,0,.07-0.57V178.1h-0.46v0.55h0a1.51,1.51,0,0,0-.63-0.5,1.45,1.45,0,0,0-.33-0.1l-0.31,0a1.69,1.69,0,0,0-.67.13,1.56,1.56,0,0,0-.53.36,1.71,1.71,0,0,0-.35.54,1.74,1.74,0,0,0-.13.67,1.66,1.66,0,0,0,.13.67,1.59,1.59,0,0,0,.36.53,1.7,1.7,0,0,0,.54.35,1.76,1.76,0,0,0,.67.13,1.68,1.68,0,0,0,.68-0.14,1.26,1.26,0,0,0,.55-0.48h0v0.59a1.84,1.84,0,0,1-.07.5,1.07,1.07,0,0,1-.22.41,1,1,0,0,1-.4.28,1.56,1.56,0,0,1-.59.1,1.59,1.59,0,0,1-.72-0.16,1.49,1.49,0,0,1-.53-0.44Zm0.52-3.19a1.28,1.28,0,0,1,.26-0.4,1.25,1.25,0,0,1,.38-0.27,1.13,1.13,0,0,1,.48-0.1,1.27,1.27,0,0,1,.52.1,1.18,1.18,0,0,1,.39.27,1.16,1.16,0,0,1,.25.4,1.4,1.4,0,0,1,.08.49,1.28,1.28,0,0,1-.09.52,1.12,1.12,0,0,1-.27.4,1.29,1.29,0,0,1-.88.35,1.13,1.13,0,0,1-.48-0.1,1.25,1.25,0,0,1-.38-0.27,1.28,1.28,0,0,1-.26-0.4A1.3,1.3,0,0,1,346.87,179.21Zm-4.36-1.11c0,0.12,0,.25,0,0.38s0,0.25,0,.34v2.56H343V179.7a1.45,1.45,0,0,1,.14-0.7,1.1,1.1,0,0,1,.32-0.38,0.86,0.86,0,0,1,.34-0.15l0.2,0a0.77,0.77,0,0,1,.7.29,1.54,1.54,0,0,1,.19.84v1.81h0.46V179.3a1.36,1.36,0,0,0-.3-0.95,1.19,1.19,0,0,0-.93-0.33,1.21,1.21,0,0,0-.33,0,1.43,1.43,0,0,0-.31.13,1.27,1.27,0,0,0-.27.19l-0.2.25h0v-0.26l0-.26h-0.48Zm-1.08,0H341v3.28h0.46V178.1Zm0-1.5-0.23-.09-0.23.09a0.33,0.33,0,0,0,0,.48l0.23,0.09,0.23-.09A0.33,0.33,0,0,0,341.44,176.6Zm-1.4,2a0.94,0.94,0,0,0-.46-0.46,1.53,1.53,0,0,0-.64-0.13,1.67,1.67,0,0,0-.45.06,1.26,1.26,0,0,0-.39.18,0.88,0.88,0,0,0-.27.31,0.92,0.92,0,0,0-.1.44,0.72,0.72,0,0,0,.1.39,0.89,0.89,0,0,0,.23.26,1.07,1.07,0,0,0,.28.15l0.23,0.07L339,180a1.6,1.6,0,0,1,.44.17,0.38,0.38,0,0,1,.18.35,0.44,0.44,0,0,1-.07.24l-0.17.17a0.81,0.81,0,0,1-.25.1,1.28,1.28,0,0,1-.28,0,0.94,0.94,0,0,1-.51-0.13,1.1,1.1,0,0,1-.35-0.36l-0.4.27a1.29,1.29,0,0,0,.56.49,1.73,1.73,0,0,0,.7.14,2,2,0,0,0,.47-0.06,1.21,1.21,0,0,0,.41-0.18,0.89,0.89,0,0,0,.4-0.77,0.8,0.8,0,0,0-.23-0.58,1.11,1.11,0,0,0-.57-0.31l-0.47-.11a1.59,1.59,0,0,1-.48-0.18,0.37,0.37,0,0,1-.16-0.34l0.06-.22,0.16-.15,0.22-.09,0.24,0a0.74,0.74,0,0,1,.43.12,0.86,0.86,0,0,1,.28.32Zm-3,0a0.94,0.94,0,0,0-.46-0.46A1.53,1.53,0,0,0,336,178a1.67,1.67,0,0,0-.45.06,1.26,1.26,0,0,0-.39.18,0.88,0.88,0,0,0-.27.31,0.92,0.92,0,0,0-.1.44,0.72,0.72,0,0,0,.1.39,0.89,0.89,0,0,0,.23.26,1.07,1.07,0,0,0,.28.15l0.23,0.07L336,180a1.6,1.6,0,0,1,.44.17,0.38,0.38,0,0,1,.18.35,0.44,0.44,0,0,1-.07.24l-0.17.17a0.81,0.81,0,0,1-.25.1,1.28,1.28,0,0,1-.28,0,0.94,0.94,0,0,1-.51-0.13,1.1,1.1,0,0,1-.35-0.36l-0.4.27a1.29,1.29,0,0,0,.56.49,1.73,1.73,0,0,0,.7.14,2,2,0,0,0,.47-0.06,1.21,1.21,0,0,0,.41-0.18,0.89,0.89,0,0,0,.4-0.77,0.8,0.8,0,0,0-.23-0.58,1.11,1.11,0,0,0-.57-0.31l-0.47-.11a1.59,1.59,0,0,1-.48-0.18,0.37,0.37,0,0,1-.16-0.34l0.06-.22,0.16-.15,0.22-.09,0.24,0a0.74,0.74,0,0,1,.43.12,0.86,0.86,0,0,1,.28.32Zm-3,1.26v-0.21A1.88,1.88,0,0,0,334,179a1.52,1.52,0,0,0-.3-0.52,1.48,1.48,0,0,0-.49-0.35,1.6,1.6,0,0,0-.67-0.13,1.62,1.62,0,0,0-1.18.49,1.66,1.66,0,0,0-.35.55,1.83,1.83,0,0,0-.13.69,1.78,1.78,0,0,0,.13.69,1.71,1.71,0,0,0,.35.55,1.58,1.58,0,0,0,.54.36,1.74,1.74,0,0,0,.68.13,1.81,1.81,0,0,0,.76-0.16,1.76,1.76,0,0,0,.65-0.53l-0.36-.29a1.29,1.29,0,0,1-.41.4,1.17,1.17,0,0,1-.64.17,1.13,1.13,0,0,1-.46-0.09,1.21,1.21,0,0,1-.63-0.62,1.4,1.4,0,0,1-.12-0.46h2.73Zm-2.72-.38a0.86,0.86,0,0,1,.09-0.39,1.16,1.16,0,0,1,.25-0.34,1.23,1.23,0,0,1,.37-0.23,1.13,1.13,0,0,1,.43-0.09,1,1,0,0,1,1.06,1h-2.21Zm-0.95-.9a1.55,1.55,0,0,0-.55-0.42,1.65,1.65,0,0,0-.64-0.14,1.83,1.83,0,0,0-.72.12,1.6,1.6,0,0,0-.55.36,1.53,1.53,0,0,0-.35.55,2.05,2.05,0,0,0,0,1.38,1.53,1.53,0,0,0,.35.55,1.6,1.6,0,0,0,.55.36,1.83,1.83,0,0,0,.72.12,1.66,1.66,0,0,0,.64-0.14,1.55,1.55,0,0,0,.55-0.42l-0.38-.29a1,1,0,0,1-.33.31,0.94,0.94,0,0,1-.49.13,1.21,1.21,0,0,1-.51-0.09,1.13,1.13,0,0,1-.39-0.27,1.18,1.18,0,0,1-.25-0.42,1.66,1.66,0,0,1,0-1,1.19,1.19,0,0,1,.25-0.42,1.14,1.14,0,0,1,.39-0.27,1.21,1.21,0,0,1,.51-0.09,0.94,0.94,0,0,1,.49.13,1,1,0,0,1,.33.31Zm-3.73.47a1.67,1.67,0,0,0-.36-0.55,1.64,1.64,0,0,0-.55-0.36,1.85,1.85,0,0,0-.7-0.13,1.83,1.83,0,0,0-.7.13,1.62,1.62,0,0,0-.91.91,1.88,1.88,0,0,0,0,1.37,1.62,1.62,0,0,0,.91.91,1.83,1.83,0,0,0,.7.13,1.85,1.85,0,0,0,.7-0.13,1.64,1.64,0,0,0,.55-0.36,1.67,1.67,0,0,0,.36-0.55A1.88,1.88,0,0,0,326.67,179.06Zm-0.46,1.2a1.23,1.23,0,0,1-.25.41,1.16,1.16,0,0,1-.39.28,1.35,1.35,0,0,1-1,0,1.12,1.12,0,0,1-.38-0.28,1.24,1.24,0,0,1-.25-0.41,1.53,1.53,0,0,1,0-1,1.24,1.24,0,0,1,.25-0.41,1.12,1.12,0,0,1,.38-0.28,1.35,1.35,0,0,1,1,0,1.16,1.16,0,0,1,.39.28,1.23,1.23,0,0,1,.25.41A1.55,1.55,0,0,1,326.21,180.25Zm-4.87,1.13h0.46v-1.85a1.15,1.15,0,0,1,.06-0.35,1.09,1.09,0,0,1,.19-0.34,1,1,0,0,1,.32-0.26,1,1,0,0,1,.46-0.1,0.77,0.77,0,0,1,.27,0l0.09-.46a1.24,1.24,0,0,0-.34,0,1.17,1.17,0,0,0-.39.06,1.07,1.07,0,0,0-.3.16l-0.22.22-0.14.26h0V178.1h-0.46q0,0.36,0,.58c0,0.15,0,.3,0,0.44v2.25Zm-4.33,2h0.46v-2.56h0a1.2,1.2,0,0,0,.27.29,1.65,1.65,0,0,0,.32.2,1.54,1.54,0,0,0,.35.11,1.76,1.76,0,0,0,.34,0,1.85,1.85,0,0,0,.7-0.13,1.62,1.62,0,0,0,.91-0.91,1.88,1.88,0,0,0,0-1.37,1.62,1.62,0,0,0-.91-0.91,1.85,1.85,0,0,0-.7-0.13,1.8,1.8,0,0,0-.34,0,1.55,1.55,0,0,0-.35.11,1.65,1.65,0,0,0-.32.2,1.2,1.2,0,0,0-.27.29h0V178.1H317v5.29Zm2.9-3.14a1.23,1.23,0,0,1-.25.41,1.17,1.17,0,0,1-.39.28,1.25,1.25,0,0,1-.51.1,1.32,1.32,0,0,1-.53-0.1,1.29,1.29,0,0,1-.41-0.28,1.25,1.25,0,0,1-.27-0.41,1.39,1.39,0,0,1,0-1,1.25,1.25,0,0,1,.27-0.41,1.29,1.29,0,0,1,.41-0.28,1.32,1.32,0,0,1,.53-0.1,1.25,1.25,0,0,1,.51.1,1.17,1.17,0,0,1,.39.28,1.23,1.23,0,0,1,.25.41A1.53,1.53,0,0,1,319.92,180.25Zm-5.86-4.17H313.6v2.56h0a1.2,1.2,0,0,0-.27-0.29,1.65,1.65,0,0,0-.32-0.2,1.55,1.55,0,0,0-.35-0.11,1.8,1.8,0,0,0-.34,0,1.85,1.85,0,0,0-.7.13,1.65,1.65,0,0,0-.55.36,1.67,1.67,0,0,0-.36.55,1.89,1.89,0,0,0,0,1.37,1.67,1.67,0,0,0,.36.55,1.65,1.65,0,0,0,.55.36,1.85,1.85,0,0,0,.7.13,1.76,1.76,0,0,0,.34,0,1.55,1.55,0,0,0,.35-0.11,1.65,1.65,0,0,0,.32-0.2,1.2,1.2,0,0,0,.27-0.29h0v0.55h0.46v-5.29Zm-2.9,3.14a1.23,1.23,0,0,1,.25-0.41,1.16,1.16,0,0,1,.39-0.28,1.25,1.25,0,0,1,.51-0.1,1.33,1.33,0,0,1,.52.1,1.28,1.28,0,0,1,.42.28,1.26,1.26,0,0,1,.27.41,1.39,1.39,0,0,1,0,1,1.26,1.26,0,0,1-.27.41,1.28,1.28,0,0,1-.42.28,1.33,1.33,0,0,1-.52.1,1.25,1.25,0,0,1-.51-0.1,1.16,1.16,0,0,1-.39-0.28,1.23,1.23,0,0,1-.25-0.41A1.55,1.55,0,0,1,311.16,179.23Zm-4.29-1.13c0,0.12,0,.25,0,0.38s0,0.25,0,.34v2.56h0.46V179.7a1.45,1.45,0,0,1,.14-0.7,1.1,1.1,0,0,1,.32-0.38,0.86,0.86,0,0,1,.34-0.15l0.2,0a0.77,0.77,0,0,1,.7.29,1.54,1.54,0,0,1,.19.84v1.81h0.46V179.3a1.36,1.36,0,0,0-.3-0.95,1.19,1.19,0,0,0-.93-0.33,1.21,1.21,0,0,0-.33,0,1.43,1.43,0,0,0-.31.13,1.27,1.27,0,0,0-.27.19l-0.2.25h0v-0.26l0-.26h-0.48Zm-1.73,1.27-0.65,0a2.55,2.55,0,0,0-.67.14,1.25,1.25,0,0,0-.52.34,0.9,0.9,0,0,0-.21.63,0.87,0.87,0,0,0,.09.42,0.91,0.91,0,0,0,.25.3,1.05,1.05,0,0,0,.36.18,1.49,1.49,0,0,0,.42.06,1.46,1.46,0,0,0,.68-0.14,1.25,1.25,0,0,0,.48-0.47h0c0,0.09,0,.18,0,0.27s0,0.18,0,.26h0.45c0-.09,0-0.2,0-0.34s0-.27,0-0.4v-1.46a1.25,1.25,0,0,0-.1-0.52,1.06,1.06,0,0,0-.26-0.36,1,1,0,0,0-.38-0.21,1.51,1.51,0,0,0-.46-0.07,1.85,1.85,0,0,0-1.39.48l0.28,0.33a1.45,1.45,0,0,1,1-.38,0.75,0.75,0,0,1,.84.85v0.08h-0.23Zm0.23,0.38V180a1.4,1.4,0,0,1-.06.41,0.89,0.89,0,0,1-.5.56,1.05,1.05,0,0,1-.44.08,1.22,1.22,0,0,1-.28,0,0.75,0.75,0,0,1-.25-0.1l-0.18-.19a0.55,0.55,0,0,1-.07-0.28,0.47,0.47,0,0,1,.17-0.39,1.11,1.11,0,0,1,.41-0.21,2.53,2.53,0,0,1,.5-0.08l0.44,0h0.24ZM297,182.4a2,2,0,0,0,.7.5,2.24,2.24,0,0,0,.88.16,2,2,0,0,0,.9-0.17,1.49,1.49,0,0,0,.54-0.42,1.41,1.41,0,0,0,.26-0.55,2.66,2.66,0,0,0,.07-0.57V178.1h-0.46v0.55h0a1.51,1.51,0,0,0-.63-0.5,1.45,1.45,0,0,0-.33-0.1l-0.31,0a1.69,1.69,0,0,0-.67.13,1.56,1.56,0,0,0-.53.36,1.71,1.71,0,0,0-.35.54,1.74,1.74,0,0,0-.13.67,1.66,1.66,0,0,0,.13.67,1.59,1.59,0,0,0,.36.53,1.7,1.7,0,0,0,.54.35,1.76,1.76,0,0,0,.67.13,1.68,1.68,0,0,0,.68-0.14,1.26,1.26,0,0,0,.55-0.48h0v0.59a1.84,1.84,0,0,1-.07.5,1.07,1.07,0,0,1-.22.41,1,1,0,0,1-.4.28,1.56,1.56,0,0,1-.59.1,1.59,1.59,0,0,1-.72-0.16,1.49,1.49,0,0,1-.53-0.44Zm0.52-3.19a1.28,1.28,0,0,1,.26-0.4,1.25,1.25,0,0,1,.38-0.27,1.13,1.13,0,0,1,.48-0.1,1.27,1.27,0,0,1,.52.1,1.18,1.18,0,0,1,.39.27,1.16,1.16,0,0,1,.25.4,1.4,1.4,0,0,1,.08.49,1.28,1.28,0,0,1-.09.52,1.12,1.12,0,0,1-.27.4,1.29,1.29,0,0,1-.88.35,1.13,1.13,0,0,1-.48-0.1,1.25,1.25,0,0,1-.38-0.27,1.28,1.28,0,0,1-.26-0.4A1.3,1.3,0,0,1,297.47,179.21Zm-4.36-1.11c0,0.12,0,.25,0,0.38s0,0.25,0,.34v2.56h0.46V179.7a1.45,1.45,0,0,1,.14-0.7,1.1,1.1,0,0,1,.32-0.38,0.86,0.86,0,0,1,.34-0.15l0.2,0a0.77,0.77,0,0,1,.7.29,1.54,1.54,0,0,1,.19.84v1.81H296V179.3a1.36,1.36,0,0,0-.3-0.95,1.19,1.19,0,0,0-.93-0.33,1.21,1.21,0,0,0-.33,0,1.43,1.43,0,0,0-.31.13,1.27,1.27,0,0,0-.27.19l-0.2.25h0v-0.26l0-.26h-0.48Zm-1.08,0h-0.46v3.28H292V178.1Zm0-1.5-0.23-.09-0.23.09a0.33,0.33,0,0,0,0,.48l0.23,0.09,0.23-.09A0.33,0.33,0,0,0,292,176.6Zm-1.2,1.5H289.9v-0.92h-0.46v0.92h-0.69v0.42h0.69v2.06a1.06,1.06,0,0,0,.08.44,0.72,0.72,0,0,0,.2.27,0.65,0.65,0,0,0,.26.13,1.17,1.17,0,0,0,.28,0,1.48,1.48,0,0,0,.62-0.12l0-.43-0.23.09-0.25,0-0.19,0-0.15-.09-0.1-.18a1,1,0,0,1,0-.3v-1.93h0.95V178.1Zm-2.53,1.76v-0.21a1.88,1.88,0,0,0-.1-0.63,1.52,1.52,0,0,0-.3-0.52,1.48,1.48,0,0,0-.49-0.35,1.6,1.6,0,0,0-.67-0.13,1.62,1.62,0,0,0-1.18.49,1.66,1.66,0,0,0-.35.55,1.83,1.83,0,0,0-.13.69,1.78,1.78,0,0,0,.13.69,1.71,1.71,0,0,0,.35.55,1.58,1.58,0,0,0,.54.36,1.74,1.74,0,0,0,.68.13,1.81,1.81,0,0,0,.76-0.16,1.76,1.76,0,0,0,.65-0.53l-0.36-.29a1.29,1.29,0,0,1-.41.4,1.17,1.17,0,0,1-.64.17,1.13,1.13,0,0,1-.46-0.09,1.21,1.21,0,0,1-.63-0.62,1.4,1.4,0,0,1-.12-0.46h2.73Zm-2.72-.38a0.86,0.86,0,0,1,.09-0.39,1.16,1.16,0,0,1,.25-0.34,1.23,1.23,0,0,1,.37-0.23,1.13,1.13,0,0,1,.43-0.09,1,1,0,0,1,1.06,1h-2.21Zm-3.25-3.4h-0.46v5.29h0.46v-1.72l1.7,1.72h0.71L283,179.6l1.63-1.5h-0.69l-1.55,1.48v-3.49Zm-2.74,5.29h0.46v-1.85a1.15,1.15,0,0,1,.06-0.35,1.09,1.09,0,0,1,.19-0.34,1,1,0,0,1,.32-0.26,1,1,0,0,1,.46-0.1,0.77,0.77,0,0,1,.27,0l0.09-.46a1.24,1.24,0,0,0-.34,0,1.17,1.17,0,0,0-.39.06,1.07,1.07,0,0,0-.3.16l-0.22.22-0.14.26h0V178.1h-0.46q0,0.36,0,.58c0,0.15,0,.3,0,0.44v2.25Zm-1.81-2-0.65,0a2.55,2.55,0,0,0-.67.14,1.25,1.25,0,0,0-.52.34,0.9,0.9,0,0,0-.21.63,0.87,0.87,0,0,0,.09.42,0.91,0.91,0,0,0,.25.3,1.05,1.05,0,0,0,.36.18,1.49,1.49,0,0,0,.42.06,1.46,1.46,0,0,0,.68-0.14,1.25,1.25,0,0,0,.48-0.47h0c0,0.09,0,.18,0,0.27s0,0.18,0,.26h0.45c0-.09,0-0.2,0-0.34s0-.27,0-0.4v-1.46a1.25,1.25,0,0,0-.1-0.52,1.06,1.06,0,0,0-.26-0.36,1,1,0,0,0-.38-0.21,1.51,1.51,0,0,0-.46-0.07,1.85,1.85,0,0,0-1.39.48l0.28,0.33a1.45,1.45,0,0,1,1-.38,0.75,0.75,0,0,1,.84.85v0.08h-0.23Zm0.23,0.38V180a1.4,1.4,0,0,1-.06.41,0.89,0.89,0,0,1-.5.56,1.05,1.05,0,0,1-.44.08,1.22,1.22,0,0,1-.28,0,0.75,0.75,0,0,1-.25-0.1l-0.18-.19a0.55,0.55,0,0,1-.07-0.28,0.47,0.47,0,0,1,.17-0.39,1.11,1.11,0,0,1,.41-0.21,2.53,2.53,0,0,1,.5-0.08l0.44,0H278Zm-7.39-3.33h-0.77v5h0.5V177.1h0l1.79,4.28h0.27l1.79-4.28h0v4.28h0.5v-5H274l-1.67,4Z" transform="translate(-215.87 -176.09)" fill="#58595b"/><path d="M275.72,184.08a1.18,1.18,0,0,0-.26-0.39,1.26,1.26,0,0,0-.39-0.26,1.28,1.28,0,0,0-1,0,1.25,1.25,0,0,0-.39.26,1.18,1.18,0,0,0-.26.39,1.28,1.28,0,0,0,0,1,1.18,1.18,0,0,0,.26.39,1.25,1.25,0,0,0,.39.26,1.28,1.28,0,0,0,1,0,1.26,1.26,0,0,0,.39-0.26,1.18,1.18,0,0,0,.26-0.39A1.28,1.28,0,0,0,275.72,184.08Zm-0.39.8a0.85,0.85,0,0,1-.17.26,0.76,0.76,0,0,1-.25.17,0.86,0.86,0,0,1-.63,0,0.76,0.76,0,0,1-.25-0.17,0.85,0.85,0,0,1-.17-0.26,0.8,0.8,0,0,1,0-.64A0.85,0.85,0,0,1,274,184a0.76,0.76,0,0,1,.25-0.17,0.86,0.86,0,0,1,.63,0,0.76,0.76,0,0,1,.25.17,0.85,0.85,0,0,1,.17.26A0.81,0.81,0,0,1,275.32,184.89Zm3.23,1.87a1.18,1.18,0,0,0-.26-0.39,1.26,1.26,0,0,0-.39-0.26,1.28,1.28,0,0,0-1,0,1.25,1.25,0,0,0-.39.26,1.18,1.18,0,0,0-.26.39,1.28,1.28,0,0,0,0,1,1.18,1.18,0,0,0,.26.39,1.24,1.24,0,0,0,.39.26,1.28,1.28,0,0,0,1,0,1.26,1.26,0,0,0,.39-0.26,1.18,1.18,0,0,0,.26-0.39A1.28,1.28,0,0,0,278.55,186.76Zm-0.39.81a0.85,0.85,0,0,1-.17.26,0.76,0.76,0,0,1-.25.17,0.86,0.86,0,0,1-.63,0,0.76,0.76,0,0,1-.25-0.17,0.85,0.85,0,0,1-.17-0.26,0.81,0.81,0,0,1,0-.64,0.85,0.85,0,0,1,.17-0.26,0.76,0.76,0,0,1,.25-0.17,0.87,0.87,0,0,1,.63,0,0.76,0.76,0,0,1,.25.17,0.85,0.85,0,0,1,.17.26A0.81,0.81,0,0,1,278.16,187.56Zm-0.41-4.17-0.36-.19-3.16,5.2,0.36,0.19ZM270.62,186h0.22a2.08,2.08,0,0,1,.47.05,1.18,1.18,0,0,1,.4.17,0.87,0.87,0,0,1,.28.31,1.07,1.07,0,0,1,0,.87,0.91,0.91,0,0,1-.22.31,1,1,0,0,1-.33.2,1.13,1.13,0,0,1-.4.07,1.21,1.21,0,0,1-.7-0.17,1,1,0,0,1-.37-0.53l-0.53.16a1.45,1.45,0,0,0,.61.76,1.85,1.85,0,0,0,1,.24,1.92,1.92,0,0,0,.61-0.09,1.52,1.52,0,0,0,.5-0.28,1.3,1.3,0,0,0,.34-0.45,1.41,1.41,0,0,0,.13-0.61,1.38,1.38,0,0,0-.07-0.44,1.34,1.34,0,0,0-.2-0.38,1.19,1.19,0,0,0-.3-0.28,1.07,1.07,0,0,0-.38-0.16h0a1.21,1.21,0,0,0,.32-0.16,1.27,1.27,0,0,0,.27-0.26,1.2,1.2,0,0,0,.18-0.33,1.12,1.12,0,0,0,.07-0.38,1.25,1.25,0,0,0-.12-0.55,1.19,1.19,0,0,0-.31-0.41,1.34,1.34,0,0,0-.46-0.25,1.77,1.77,0,0,0-.55-0.08,1.63,1.63,0,0,0-.8.19,1.49,1.49,0,0,0-.57.59l0.44,0.22a1.1,1.1,0,0,1,.39-0.41,1.07,1.07,0,0,1,.55-0.14,1,1,0,0,1,.67.22,0.8,0.8,0,0,1,.24.62,0.93,0.93,0,0,1-.09.42,0.78,0.78,0,0,1-.23.28,1,1,0,0,1-.35.16,1.74,1.74,0,0,1-.42,0h-0.26V186Z" transform="translate(-215.87 -176.09)" fill="#58595b"/></svg>